<svg xmlns="http://www.w3.org/2000/svg" xmlns:xlink="http://www.w3.org/1999/xlink" viewBox="0 0 841.89 595.28"><defs><style>.cls-1{isolation:isolate;}.cls-2,.cls-6{fill:#9e216d;}.cls-2,.cls-23,.cls-31,.cls-85{opacity:0.35;}.cls-11,.cls-15,.cls-2,.cls-23,.cls-31,.cls-45,.cls-46,.cls-52,.cls-56,.cls-57,.cls-6,.cls-60,.cls-64,.cls-65,.cls-7,.cls-8,.cls-82,.cls-85,.cls-91{mix-blend-mode:multiply;}.cls-3{fill:url(#linear-gradient);}.cls-4{fill:#5f2948;}.cls-5{fill:url(#linear-gradient-2);}.cls-11,.cls-22,.cls-27,.cls-30,.cls-6,.cls-7,.cls-79{opacity:0.5;}.cls-12,.cls-7,.cls-8{fill:#d3948f;}.cls-15,.cls-8{opacity:0.2;}.cls-9{fill:url(#linear-gradient-3);}.cls-10{fill:url(#linear-gradient-4);}.cls-13{fill:#6e2f50;}.cls-14{fill:url(#linear-gradient-5);}.cls-16,.cls-31{fill:#c91f46;}.cls-17{fill:url(#linear-gradient-6);}.cls-18{fill:url(#linear-gradient-7);}.cls-19{fill:url(#linear-gradient-8);}.cls-20{fill:#fff6ca;}.cls-21{fill:url(#linear-gradient-9);}.cls-22,.cls-27,.cls-30,.cls-50,.cls-51,.cls-81,.cls-88,.cls-89,.cls-90,.cls-94,.cls-95{mix-blend-mode:screen;}.cls-22{fill:url(#linear-gradient-10);}.cls-24{fill:#c0597d;}.cls-25{fill:#fdfce7;}.cls-26{fill:#f69aa1;}.cls-27{fill:url(#linear-gradient-11);}.cls-28{fill:url(#linear-gradient-12);}.cls-29{fill:#a65a7e;}.cls-30{fill:#8e9fbf;}.cls-32{fill:#b97397;}.cls-33{fill:#8d496b;}.cls-34{fill:url(#linear-gradient-13);}.cls-35{fill:url(#linear-gradient-14);}.cls-36{fill:url(#linear-gradient-15);}.cls-37{fill:url(#linear-gradient-16);}.cls-38{fill:url(#linear-gradient-17);}.cls-39{fill:#fac2c0;}.cls-40{fill:#804164;}.cls-41{fill:#b36f94;}.cls-42{fill:url(#linear-gradient-18);}.cls-43{fill:#fdf166;}.cls-44{fill:#dd952b;}.cls-45,.cls-46,.cls-56,.cls-57,.cls-60,.cls-64,.cls-65{opacity:0.4;}.cls-45{fill:url(#linear-gradient-19);}.cls-46{fill:url(#linear-gradient-20);}.cls-47{fill:url(#linear-gradient-21);}.cls-48{fill:#5b2c4b;}.cls-49{fill:url(#linear-gradient-22);}.cls-50,.cls-51{fill:#bc82a4;}.cls-50{opacity:0.1;}.cls-51,.cls-52,.cls-82{opacity:0.15;}.cls-52{fill:#972372;}.cls-53{fill:#c187aa;}.cls-54{fill:url(#linear-gradient-23);}.cls-55{fill:url(#linear-gradient-24);}.cls-56{fill:url(#linear-gradient-25);}.cls-57{fill:url(#linear-gradient-26);}.cls-58{fill:url(#linear-gradient-27);}.cls-59{fill:url(#linear-gradient-28);}.cls-60{fill:url(#linear-gradient-29);}.cls-61{fill:#fff0d9;}.cls-62{fill:#e676ae;}.cls-63{fill:url(#linear-gradient-30);}.cls-64{fill:url(#linear-gradient-31);}.cls-65{fill:url(#linear-gradient-32);}.cls-66{fill:url(#radial-gradient);}.cls-67{fill:#b4d568;}.cls-68{fill:#88ad3e;}.cls-68,.cls-81{opacity:0.3;}.cls-69{fill:url(#radial-gradient-2);}.cls-70{fill:url(#radial-gradient-3);}.cls-71{fill:url(#radial-gradient-4);}.cls-72{fill:url(#radial-gradient-5);}.cls-73{fill:url(#radial-gradient-6);}.cls-74{fill:#71435c;}.cls-75{fill:#c79fc3;}.cls-76,.cls-79{fill:#5b374d;}.cls-77{fill:#a97ea7;}.cls-78{fill:#7c536c;}.cls-80{fill:url(#radial-gradient-7);}.cls-81{fill:#efcfe3;}.cls-82,.cls-85,.cls-91{fill:#89729b;}.cls-83{fill:url(#linear-gradient-33);}.cls-84{fill:#57424f;}.cls-86{fill:#4f3045;}.cls-87{fill:#825771;}.cls-88,.cls-89,.cls-94,.cls-95{opacity:0.7;}.cls-88{fill:url(#linear-gradient-34);}.cls-89{fill:url(#linear-gradient-35);}.cls-90{fill:#d7b4d6;}.cls-90,.cls-91{opacity:0.25;}.cls-92{fill:url(#radial-gradient-8);}.cls-93{fill:url(#linear-gradient-36);}.cls-94{fill:url(#linear-gradient-37);}.cls-95{fill:url(#linear-gradient-38);}.cls-96{fill:#f04b24;}.cls-97,.cls-98{fill:#2d3a49;}.cls-97{fill-rule:evenodd;}</style><linearGradient id="linear-gradient" x1="358.85" y1="394.62" x2="493.68" y2="394.62" gradientUnits="userSpaceOnUse"><stop offset="0" stop-color="#a06a84"/><stop offset="0.16" stop-color="#b57c89"/><stop offset="0.37" stop-color="#cb8d8d"/><stop offset="0.5" stop-color="#d3948f"/><stop offset="0.63" stop-color="#cd8f8e"/><stop offset="0.79" stop-color="#be828a"/><stop offset="0.97" stop-color="#a46d85"/><stop offset="1" stop-color="#a06a84"/></linearGradient><linearGradient id="linear-gradient-2" x1="358.85" y1="689.58" x2="493.68" y2="689.58" gradientTransform="matrix(1, 0, 0, -0.39, 0, 663.2)" xlink:href="#linear-gradient"/><linearGradient id="linear-gradient-3" x1="369.97" y1="398.64" x2="484.95" y2="398.64" xlink:href="#linear-gradient"/><linearGradient id="linear-gradient-4" x1="369.93" y1="400.27" x2="484.91" y2="400.27" xlink:href="#linear-gradient"/><linearGradient id="linear-gradient-5" x1="420.6" y1="392.97" x2="420.6" y2="354.89" gradientUnits="userSpaceOnUse"><stop offset="0" stop-color="#fff6ca"/><stop offset="1" stop-color="#f9bbbe"/></linearGradient><linearGradient id="linear-gradient-6" x1="420.6" y1="348.84" x2="420.6" y2="394.46" gradientUnits="userSpaceOnUse"><stop offset="0" stop-color="#f9bbbe"/><stop offset="1" stop-color="#fff6ca"/></linearGradient><linearGradient id="linear-gradient-7" x1="420.59" y1="350.96" x2="420.59" y2="393.1" xlink:href="#linear-gradient-6"/><linearGradient id="linear-gradient-8" x1="420.59" y1="351.01" x2="420.59" y2="393.15" xlink:href="#linear-gradient-6"/><linearGradient id="linear-gradient-9" x1="420.62" y1="372.97" x2="420.62" y2="358.16" gradientUnits="userSpaceOnUse"><stop offset="0" stop-color="#762947"/><stop offset="0.79" stop-color="#521c3e"/></linearGradient><linearGradient id="linear-gradient-10" x1="419.47" y1="370.15" x2="419.47" y2="359.79" gradientUnits="userSpaceOnUse"><stop offset="0" stop-color="#010101"/><stop offset="1" stop-color="#c1e7ef"/></linearGradient><linearGradient id="linear-gradient-11" x1="420.59" y1="366.39" x2="420.59" y2="358.68" gradientUnits="userSpaceOnUse"><stop offset="0" stop-color="#c18781"/><stop offset="1" stop-color="#5a437b"/></linearGradient><linearGradient id="linear-gradient-12" x1="420.59" y1="347.75" x2="420.59" y2="396.52" xlink:href="#linear-gradient-6"/><linearGradient id="linear-gradient-13" x1="409.08" y1="393" x2="409.08" y2="355.2" xlink:href="#linear-gradient-5"/><linearGradient id="linear-gradient-14" x1="408.51" y1="392.04" x2="408.51" y2="349.79" xlink:href="#linear-gradient-5"/><linearGradient id="linear-gradient-15" x1="420.38" y1="356.26" x2="420.38" y2="348.83" xlink:href="#linear-gradient-5"/><linearGradient id="linear-gradient-16" x1="431.68" y1="393" x2="431.68" y2="355.2" xlink:href="#linear-gradient-5"/><linearGradient id="linear-gradient-17" x1="432.24" y1="392.04" x2="432.24" y2="349.79" xlink:href="#linear-gradient-5"/><linearGradient id="linear-gradient-18" x1="398.18" y1="383.48" x2="398.18" y2="373.73" gradientUnits="userSpaceOnUse"><stop offset="0.04" stop-color="#77af42"/><stop offset="0.95" stop-color="#add136"/></linearGradient><linearGradient id="linear-gradient-19" x1="398.18" y1="383.48" x2="398.18" y2="376.61" gradientUnits="userSpaceOnUse"><stop offset="0" stop-color="#4072b9"/><stop offset="1" stop-color="#e1ebf8"/></linearGradient><linearGradient id="linear-gradient-20" x1="397.89" y1="383.48" x2="397.89" y2="379" xlink:href="#linear-gradient-19"/><linearGradient id="linear-gradient-21" x1="398.8" y1="383.1" x2="398.8" y2="393.09" gradientUnits="userSpaceOnUse"><stop offset="0" stop-color="#762851"/><stop offset="1" stop-color="#92496e"/></linearGradient><linearGradient id="linear-gradient-22" x1="398.68" y1="383.1" x2="398.68" y2="393.09" xlink:href="#linear-gradient-21"/><linearGradient id="linear-gradient-23" x1="442.66" y1="386.49" x2="442.66" y2="393.37" xlink:href="#linear-gradient-21"/><linearGradient id="linear-gradient-24" x1="441.5" y1="386.68" x2="441.5" y2="377.45" xlink:href="#linear-gradient-18"/><linearGradient id="linear-gradient-25" x1="441.5" y1="386.68" x2="441.5" y2="380.96" xlink:href="#linear-gradient-19"/><linearGradient id="linear-gradient-26" x1="441.5" y1="386.68" x2="441.5" y2="382.84" xlink:href="#linear-gradient-19"/><linearGradient id="linear-gradient-27" x1="442.47" y1="386.49" x2="442.47" y2="393.37" xlink:href="#linear-gradient-21"/><linearGradient id="linear-gradient-28" x1="420.59" y1="357.5" x2="420.59" y2="349.59" gradientUnits="userSpaceOnUse"><stop offset="0.04" stop-color="#439544"/><stop offset="0.95" stop-color="#7cc242"/></linearGradient><linearGradient id="linear-gradient-29" x1="420.59" y1="358.19" x2="420.59" y2="354.21" xlink:href="#linear-gradient-19"/><linearGradient id="linear-gradient-30" x1="420.77" y1="371.78" x2="420.77" y2="359.48" xlink:href="#linear-gradient-28"/><linearGradient id="linear-gradient-31" x1="420.53" y1="372.03" x2="420.74" y2="366.31" xlink:href="#linear-gradient-19"/><linearGradient id="linear-gradient-32" x1="420.89" y1="364.96" x2="420.89" y2="361.77" xlink:href="#linear-gradient-19"/><radialGradient id="radial-gradient" cx="421.02" cy="361.95" r="1.04" gradientUnits="userSpaceOnUse"><stop offset="0.02" stop-color="#9355a2"/><stop offset="1" stop-color="#8863aa"/></radialGradient><radialGradient id="radial-gradient-2" cx="422.51" cy="367.91" r="1.1" xlink:href="#radial-gradient"/><radialGradient id="radial-gradient-3" cx="-132.52" cy="352.61" r="0.85" gradientTransform="translate(685.59 101.38) rotate(24.7)" xlink:href="#radial-gradient"/><radialGradient id="radial-gradient-4" cx="-133.62" cy="346.05" r="0.85" gradientTransform="translate(685.59 101.38) rotate(24.7)" xlink:href="#radial-gradient"/><radialGradient id="radial-gradient-5" cx="1185.76" cy="672.46" r="0.85" gradientTransform="matrix(0.79, -0.61, 0.61, 0.79, -934.09, 550.6)" xlink:href="#radial-gradient"/><radialGradient id="radial-gradient-6" cx="-184.78" cy="433.98" r="0.85" gradientTransform="translate(785.65 58.21) rotate(26.64)" xlink:href="#radial-gradient"/><radialGradient id="radial-gradient-7" cx="444.57" cy="354.11" r="1.04" gradientUnits="userSpaceOnUse"><stop offset="0.06" stop-color="#efcfe3"/><stop offset="1" stop-color="#deb8d7"/></radialGradient><linearGradient id="linear-gradient-33" x1="444.55" y1="353.48" x2="445.3" y2="353.48" xlink:href="#radial-gradient-7"/><linearGradient id="linear-gradient-34" x1="443.59" y1="354.24" x2="446.99" y2="354.24" gradientUnits="userSpaceOnUse"><stop offset="0" stop-color="#d7b4d6"/><stop offset="1" stop-color="#010101"/></linearGradient><linearGradient id="linear-gradient-35" x1="443.82" y1="356.21" x2="446.76" y2="356.21" xlink:href="#linear-gradient-34"/><radialGradient id="radial-gradient-8" cx="393.7" cy="354.11" r="1.04" xlink:href="#radial-gradient-7"/><linearGradient id="linear-gradient-36" x1="393.68" y1="353.48" x2="394.44" y2="353.48" xlink:href="#radial-gradient-7"/><linearGradient id="linear-gradient-37" x1="392.73" y1="354.24" x2="396.13" y2="354.24" xlink:href="#linear-gradient-34"/><linearGradient id="linear-gradient-38" x1="392.96" y1="356.21" x2="395.89" y2="356.21" xlink:href="#linear-gradient-34"/></defs><title>HAO HOUSING OFFICIAL LOGO</title><g class="cls-1"><g id="Layer_1" data-name="Layer 1"><polygon class="cls-2" points="430.36 393.57 430.77 393.81 433.23 393.81 434.18 356.74 434.2 356 434.44 355 434.53 351.61 434.79 351.61 435.63 350.52 435.88 350.52 435.88 349.71 407.03 349.71 407.03 350.42 406.67 350.42 407.58 351.61 407.84 351.61 407.93 355 407.93 355.02 407.93 355.02 408.17 356 408.19 356.74 409.15 393.81 411.6 393.81 412.42 393.57 412.84 393.57 430.16 393.57 430.36 393.57 430.36 393.57"/><path class="cls-3" d="M372.9,392.74a13.59,13.59,0,0,1-1.39,3.77H467a22.91,22.91,0,0,0-1.18-3,1.24,1.24,0,0,1,0-.76Z"/><path class="cls-4" d="M368.9,402.5H469.77a9.62,9.62,0,0,1-1.76-3.93,1.39,1.39,0,0,1-.7-.61h-96.6c-.68,1.18-1.26,2.37-1.81,3.58Z"/><path class="cls-2" d="M370.09,399.11h98c0-.18-.06-.36-.09-.54a1.43,1.43,0,0,1-.7-.61H370.71C370.49,398.34,370.29,398.72,370.09,399.11Z"/><path class="cls-5" d="M370.8,397.79l-.09.17H467.3a1.55,1.55,0,0,1-.19-.71,4.54,4.54,0,0,0-.1-.74h-95.5C371.29,396.94,371.05,397.36,370.8,397.79Z"/><path class="cls-6" d="M370.8,397.79l-.09.17H467.3a1.55,1.55,0,0,1-.19-.71,4.54,4.54,0,0,0-.1-.74h-95.5C371.29,396.94,371.05,397.36,370.8,397.79Z"/><path class="cls-7" d="M466.59,395.24l0-.1h-2.74v0L460.17,394H466l0-.1h-1.07l-3.85-1.11h-.26l3.78,1.12H449.65l-2.92-1.12h-.28l2.92,1.12H429.26l-1.62-1.12h-.17l1.28,1.12H408.88l-.32-1.12h-.11l.33,1.12-20-.07.74-1.05h-.12l-1,1.12-15.78-.05a.83.83,0,0,1,0,.15h5.49l-1.7,1.18h-4.23l0,.1h9.62l-1.44,1.24V398h.1l.21-1.45,1.34-1.2,21.76-.07V398h.1v-2.72h21.8l1.33,1.27.16,1.45h.1l.1-1.45-1.54-1.27h21.73l3,1.3V398h.1l.22-1.45-3.06-1.27Zm-73.1-.69h4.8l-.25.5-21.48.09,1.91-1.18h20.11l-.28.56.09-.18Zm4.85.59.34-1.18H419l1,1.18Zm21.83,0-1-1.18h20.28l.44.22-4.41.09,4.68,0,.57.29-2,.14H441l.81.4Zm21.88-.1L439.87,394h20l1.22.39h-2.78l3.17.12,2.13.67Z"/><polygon class="cls-7" points="419.66 394.55 424.52 394.38 419.52 394.38 419.66 394.55"/><polygon class="cls-7" points="453.77 395.79 448.89 395.72 449.08 395.86 453.77 395.79"/><polygon class="cls-8" points="408.88 393.86 408.56 392.74 427.47 392.74 428.75 393.86 408.88 393.86"/><polygon class="cls-8" points="378.47 393.96 398.58 393.96 398.04 395.05 376.56 395.14 378.47 393.96"/><polygon class="cls-8" points="403.8 395.24 403.8 396.51 426.93 396.51 425.6 395.24 403.8 395.24"/><polygon class="cls-8" points="439.87 393.96 459.83 393.96 463.57 395.14 442.05 395.04 439.87 393.96"/><polygon class="cls-8" points="446.73 392.74 449.65 393.86 464.58 393.86 460.8 392.74 446.73 392.74"/><path class="cls-9" d="M370,399.24a.16.16,0,0,1,0,.07h98.17a5.06,5.06,0,0,1-.17-.75,1.37,1.37,0,0,1-.66-.6h-95.6Z"/><path class="cls-10" d="M468.14,399.31H370a.25.25,0,0,1,0,.07l.26,1.85h98.75A9.17,9.17,0,0,1,468.14,399.31Z"/><g class="cls-11"><polygon class="cls-12" points="389.93 401.23 389.81 401.23 389.83 399.31 390.78 397.96 391.12 397.96 390.07 399.31 389.93 401.23"/></g><g class="cls-11"><polygon class="cls-12" points="414.53 401.23 414.41 401.23 414.37 399.31 413.81 397.96 414.1 397.96 414.59 399.31 414.53 401.23"/></g><g class="cls-11"><polygon class="cls-12" points="436.73 401.23 436.55 401.23 436.55 399.31 434.87 397.96 435.29 397.96 436.81 399.31 436.73 401.23"/></g><g class="cls-11"><polygon class="cls-12" points="462.33 401.23 462.21 401.23 461.98 399.31 458.61 397.96 459.33 397.96 462.29 399.31 462.33 401.23"/></g><polygon class="cls-8" points="390.07 399.31 389.93 401.23 414.41 401.23 414.37 399.31 413.81 397.96 391.12 397.96 390.07 399.31"/><path class="cls-8" d="M467.31,398h-8l3,1.35,0,1.92h6.61a8.53,8.53,0,0,1-.95-2.67A1.37,1.37,0,0,1,467.31,398Z"/><path class="cls-6" d="M468.14,399.31H370a.25.25,0,0,1,0,.07l.26,1.85h98.75A9.17,9.17,0,0,1,468.14,399.31Z"/><path class="cls-13" d="M469,401.23H371.51v1.27h98.26A11.44,11.44,0,0,1,469,401.23Z"/><path class="cls-2" d="M469,401.23H371.51v.89h98A9.29,9.29,0,0,1,469,401.23Z"/><polygon class="cls-14" points="430.33 353.58 410.87 353.58 411.61 392.76 429.55 392.76 430.33 353.58"/><g class="cls-15"><path class="cls-16" d="M414.25,356l0,19.31.26.26H427.2l.28-19.57-.26-.29Zm12.17,18.74H415.27l.14-17.63,11.23-.22Z"/></g><g class="cls-15"><path class="cls-16" d="M414.52,378.69,414.43,391l.25.25H427l.18-12.51-.25-.27Zm11.7,11.73H415.44l.22-10.63,10.7-.29Z"/></g><path class="cls-17" d="M414,355.69l.25,19.6H427l.27-19.6Zm12.18,18.77H415l-.2-17.88h11.56Z"/><path class="cls-18" d="M414.27,378.42l.16,12.53h12.31l.17-12.53ZM426,390.17H415.19l-.12-10.93h11Z"/><polygon class="cls-19" points="416.72 388.61 416.66 380.86 424.51 380.86 424.44 388.61 416.72 388.61"/><polygon class="cls-20" points="424.98 358.47 416.2 358.47 416.19 357.84 424.99 357.84 424.98 358.47"/><polygon class="cls-21" points="424.59 372.97 416.64 372.97 416.53 358.16 424.72 358.16 424.59 372.97"/><polygon class="cls-22" points="417.59 359.79 421.35 359.79 421.19 370.15 418.34 370.15 417.59 359.79"/><polygon class="cls-20" points="424.84 373.26 416.32 373.26 416.31 372.67 424.85 372.67 424.84 373.26"/><g class="cls-23"><polygon class="cls-16" points="412.03 392.76 411.93 354.94 429.89 354.94 429.35 392.76 429.55 392.76 430.33 353.58 410.87 353.58 411.61 392.76 412.03 392.76"/></g><polygon class="cls-24" points="426.13 356.81 415.06 356.81 414.82 356.58 426.38 356.58 426.13 356.81"/><polygon class="cls-24" points="425.87 379.45 415.3 379.45 414.99 379.17 426.11 379.24 425.87 379.45"/><polygon class="cls-25" points="426.32 374.6 415.02 374.46 415.25 374.24 425.93 374.24 426.32 374.6"/><polygon class="cls-26" points="415.25 374.24 415.02 374.46 414.82 356.58 415.06 356.81 415.25 374.24"/><polygon class="cls-25" points="425.93 374.24 426.32 374.6 426.38 356.58 426.13 356.81 425.93 374.24"/><g class="cls-23"><path class="cls-16" d="M421.17,358.14h-4.69l0,5v.62l0,4.32v.6l-.24,4.54.28.29h8.52l0-4.83v-.6l0-4.32v-.62l0-5-.28-.3Zm-3.91.82,3.32-.18v4.4H417.1Zm.11,5,3.2-.2v4.32h-3.44Zm-.21,8.95.34-4.07,3.07-.16V373Zm7.39,0h-3.41l.3-4,3.15-.2Zm0-4.83h-3.44l.22-4.12,3.26-.2Zm-3.43-4.94.15-4.12,3.36-.28,0,4.4Z"/></g><polygon class="cls-25" points="426.13 390.31 415.19 390.17 415.41 389.97 425.75 389.97 426.13 390.31"/><polygon class="cls-24" points="424.44 388.61 416.72 388.61 416.95 388.41 424.1 388.3 424.44 388.61"/><polygon class="cls-25" points="424.51 380.86 416.66 380.86 417 381.24 424.28 381.07 424.51 380.86"/><polygon class="cls-26" points="415.41 389.97 415.19 390.17 414.99 379.17 415.3 379.45 415.41 389.97"/><polygon class="cls-25" points="425.75 389.97 426.13 390.31 426.11 379.24 425.87 379.45 425.75 389.97"/><g class="cls-15"><polygon class="cls-16" points="430.69 352.75 410.48 352.75 410.47 352.35 430.7 352.35 430.69 352.75"/></g><polygon class="cls-24" points="424.23 358.68 416.95 358.68 416.79 358.47 424.39 358.47 424.23 358.68"/><polygon class="cls-26" points="417.04 372.66 416.89 372.66 416.79 358.47 416.95 358.68 417.04 372.66"/><polygon class="cls-25" points="424.12 372.66 424.28 372.66 424.39 358.47 424.23 358.68 424.12 372.66"/><polygon class="cls-27" points="416.97 362.08 419.46 362.08 419.69 366.39 422.19 366.39 422.59 364.12 424.19 364.12 424.23 358.68 416.95 358.68 416.97 362.08"/><polygon class="cls-25" points="424.28 372.67 416.89 372.67 417.04 372.45 424.12 372.45 424.28 372.67"/><polygon class="cls-25" points="424.32 367.82 416.85 367.82 417.01 367.72 424.16 367.72 424.32 367.82"/><polygon class="cls-24" points="424.19 363.61 416.98 363.61 416.82 363.5 424.35 363.5 424.19 363.61"/><path class="cls-28" d="M420.88,357.84h-4.69l0,5v.62l0,4.32v.61l0,4.83h8.52l.05-4.83v-.61l0-4.32v-.62l.05-5Zm-4.09.63h3.5v4.41h-3.47Zm0,5h3.47v4.32h-3.45Zm.07,9.17,0-4.24h3.44v4.24Zm7.39,0h-3.41v-4.24h3.44Zm0-4.85h-3.45V363.5h3.47Zm-3.44-4.94v-4.41h3.51l0,4.41Z"/><polygon class="cls-25" points="417 381.24 416.95 388.41 416.72 388.61 416.66 380.86 417 381.24"/><polygon class="cls-26" points="424.28 381.07 424.51 380.86 424.44 388.61 424.1 388.3 424.28 381.07"/><polygon class="cls-25" points="414.11 365.82 414.18 355.75 422.63 355.69 413.98 355.57 414.11 365.82"/><polygon class="cls-25" points="414.39 387.77 414.52 378.69 422.53 378.54 414.27 378.42 414.39 387.77"/><polygon class="cls-25" points="416.24 364 416.37 358.01 423.16 357.84 416.19 357.84 416.24 364"/><polygon class="cls-29" points="427.52 374.6 429.48 374.6 429.22 379.96 427.62 379.96 427.52 374.6"/><polygon class="cls-30" points="427.77 379.78 427.74 374.79 429.32 374.73 429.48 374.6 427.52 374.6 427.62 379.96 427.77 379.78"/><polygon class="cls-31" points="427.77 379.78 429.1 379.78 429.22 379.96 427.62 379.96 427.77 379.78"/><polygon class="cls-31" points="428.99 377.57 425.7 377.42 425.7 376.96 428.81 376.29 429.04 376.55 428.99 377.57"/><polygon class="cls-32" points="428.81 377.19 425.15 377.04 425.16 376.41 428.83 376.11 428.81 377.19"/><path class="cls-32" d="M429,378.52a.5.5,0,0,1-.5.51.48.48,0,0,1-.49-.51.51.51,0,0,1,.5-.51A.49.49,0,0,1,429,378.52Z"/><path class="cls-30" d="M428.06,378.57a.53.53,0,0,1,.51-.51.48.48,0,0,1,.29.1.47.47,0,0,0-.35-.15.51.51,0,0,0-.5.51.5.5,0,0,0,.19.41A.55.55,0,0,1,428.06,378.57Z"/><polygon class="cls-33" points="428.76 378.65 428.24 378.65 428.25 378.4 428.77 378.4 428.76 378.65"/><path class="cls-30" d="M425.15,377h.07a2.35,2.35,0,0,1,0-.53l3.42-.29.18-.11-3.67.3Z"/><polygon class="cls-30" points="428.24 378.65 428.79 378.69 428.77 378.4 428.76 378.65 428.24 378.65"/><polygon class="cls-24" points="434.76 349.79 405.99 349.79 406.77 350.8 433.98 350.8 434.76 349.79"/><polygon class="cls-24" points="430.93 350.39 430.39 350.39 429.55 392.76 429.96 393 430.74 355.2 431.08 354.19 431.17 350.19 430.93 350.39"/><polygon class="cls-24" points="409.57 350.19 409.8 350.39 410.81 350.39 411.61 392.76 410.79 393 410.01 355.2 409.65 354.19 409.57 350.19"/><polygon class="cls-24" points="430.68 353.16 410.49 353.16 410.87 353.58 430.33 353.58 430.68 353.16"/><polygon class="cls-34" points="410.79 393 408.34 393 407.36 355.2 410.01 355.2 410.79 393"/><polygon class="cls-35" points="410.01 355.2 407.36 355.2 407.12 354.19 407.01 350.19 409.57 350.19 409.65 354.19 410.01 355.2"/><polygon class="cls-36" points="434.78 349.78 405.97 349.78 405.95 348.9 434.8 348.9 434.78 349.78"/><polygon class="cls-24" points="410.01 355.2 407.36 355.2 407.12 354.21 409.65 354.19 410.01 355.2"/><polygon class="cls-37" points="432.42 393 429.96 393 430.74 355.2 433.39 355.2 432.42 393"/><polygon class="cls-38" points="433.39 355.2 430.74 355.2 431.08 354.19 431.17 350.19 433.74 350.19 433.63 354.19 433.39 355.2"/><polygon class="cls-24" points="433.39 355.2 430.74 355.2 431.08 354.19 433.63 354.19 433.39 355.2"/><polygon class="cls-39" points="430.7 352.35 410.47 352.35 410.49 353.16 430.68 353.16 430.7 352.35"/><polygon class="cls-39" points="430.9 352.06 409.84 352.06 409.8 350.39 430.93 350.39 430.9 352.06"/><polygon class="cls-24" points="430.9 352.06 409.84 352.06 410.47 352.35 430.7 352.35 430.9 352.06"/><polygon class="cls-31" points="407.02 350.6 409.57 350.6 409.81 351.02 430.92 351.02 431.16 350.56 433.73 350.56 433.74 350.19 431.17 350.19 430.93 350.39 409.8 350.39 409.57 350.19 407.01 350.19 407.02 350.6"/><polygon class="cls-31" points="410.01 355.2 407.36 355.2 407.38 355.94 410.03 355.94 410.01 355.2"/><polygon class="cls-31" points="433.39 355.2 430.74 355.2 430.72 355.94 433.37 355.94 433.39 355.2"/><polygon class="cls-25" points="405.97 349.78 406.21 349.11 434.54 349.04 434.8 348.9 405.95 348.9 405.97 349.78"/><polygon class="cls-25" points="407.03 351.02 407.28 354 409.46 353.98 409.65 354.19 407.12 354.21 407.03 351.02"/><path class="cls-2" d="M396.17,381.64l-.09-.05a1.53,1.53,0,0,0-.57-.13h-.1a3.49,3.49,0,0,0-.78.11.75.75,0,0,0,.17.3,3.07,3.07,0,0,0,.26.25l.22.19.24.19a3.27,3.27,0,0,0,.5.32s.05,0,.05.06-.05.09-.13.13a2.35,2.35,0,0,1-.42.15l-.11,0h-.05a.44.44,0,0,0,.08.11,1.18,1.18,0,0,0,.38.32,1,1,0,0,0,.36.13.46.46,0,0,1-.16.11.63.63,0,0,1-.19,0,3.16,3.16,0,0,0,.34.76,2.68,2.68,0,0,0,.12.24l.11.2a.54.54,0,0,0,.06.11l-1,0-.57,0,.29,2.26.41.15.38,5.18,4,.84,2.77-.84.16-2.54h0l.16-2.48h.29l0-.61.06-.92,0-.53-.64-.21-.85,0a4,4,0,0,0,1.19-2.07l-.79.34h0a.34.34,0,0,0-.26,0,.92.92,0,0,0-.25.15h0l.49-.34.79-.56.12-.09.12-.09a1.45,1.45,0,0,0,.21-.22l.08-.13a.57.57,0,0,0,.07-.22v-.07a.39.39,0,0,0,0-.15l-.21,0-.21.05a4,4,0,0,0-1.15.54,2.09,2.09,0,0,0,.22-.2l.11-.11.1-.1.14-.18,0-.05a1.77,1.77,0,0,0,.16-.22v0a3.8,3.8,0,0,0,.49-1.13,5.71,5.71,0,0,0-1.77.73,2.82,2.82,0,0,0,.76-.74c0-.06.46-.87.35-.87a7.46,7.46,0,0,0-.72.23,3,3,0,0,0-1,.39,5.43,5.43,0,0,0,.53-.42.54.54,0,0,0,.15-.15,5.83,5.83,0,0,0,.65-.75,1.15,1.15,0,0,0,.27-.74,2.41,2.41,0,0,0-.8.15.51.51,0,0,0-.09-.16.42.42,0,0,0-.4-.1.8.8,0,0,0-.4.33l-.17.22a.52.52,0,0,1,0-.11,4.45,4.45,0,0,0,.31-1.23,5.9,5.9,0,0,0-.69.4.32.32,0,0,0-.32.18c-.09-.15.15-.47.19-.64s0-1,0-1a6.23,6.23,0,0,1-.8.54.29.29,0,0,0,0-.16.63.63,0,0,0-.59-.36.64.64,0,0,0-.55.43l.07-.2c.06-.21.13-.45,0-.62a.4.4,0,0,0-.58,0c-.3.26-.13.6,0,.89-.18.09-.7,0-.77.25a2.46,2.46,0,0,0-1.15-.6,1.9,1.9,0,0,0,.17.81,1.73,1.73,0,0,0,.18.36,2.17,2.17,0,0,0,.62.55c.13.09.27.13.39.23s.19.29.25.31l-.59-.17a1.91,1.91,0,0,0,.54,1,3.47,3.47,0,0,0-1.32-.68c0,.18,0,.36,0,.55a.13.13,0,0,1,0,.06s0,.05,0,.07,0,.06,0,.09a.07.07,0,0,1,0,.05.65.65,0,0,0,0,.13v0l0,.1v0a.75.75,0,0,0,.07.12,1.24,1.24,0,0,0,.19.26l.23.23a5.26,5.26,0,0,0-1.7-.35,2,2,0,0,0,.5.85l.2.19.22.16.25.16,0,.06-.11,0Zm2.83-4.53-.27.11a.34.34,0,0,0-.22-.13A2.64,2.64,0,0,0,399,377.11Z"/><path class="cls-2" d="M440.4,386.59l.25.2.11.11.2.24a2.51,2.51,0,0,1,.4.84,3,3,0,0,1-.83-.17l-.26-.1a.8.8,0,0,1,.16.24l.05.09,0,0,.05.08,0,0,0,.05a2.32,2.32,0,0,0,.25.21l.07.05-.45,0-.47,0,.52,2.14.26.18.06.46.22,1.51,4.43.61,3-.61,0-.32.12-.91h0l.06-.39H449l.16-2.06-.74-.32h-.25l-.55,0,.06,0a9.13,9.13,0,0,0,.73-.65,4,4,0,0,1-1.32.26h-.45l.21-.06h0l.2-.07h0l.19-.1h0a2.33,2.33,0,0,0,.46-.37,1.76,1.76,0,0,0,.24-.3,1.71,1.71,0,0,0,.13-.23.61.61,0,0,0,.05-.12l-.81,0,.26-.23a2.73,2.73,0,0,0,.23-.25l-.38.05h-.39a2.32,2.32,0,0,1-.46-.07.38.38,0,0,0,.07-.35c.2-.15.4-.31.59-.48l.3-.29a3.48,3.48,0,0,0,.38-.48,2.16,2.16,0,0,0,.2-.36,2,2,0,0,0,.19-.58l0,0h0a5.24,5.24,0,0,1-1.6.41l.5-.72h-.06a.06.06,0,0,0,0,0,.37.37,0,0,0-.2-.27,3,3,0,0,0,.69-1.34l-2,.81c.27-.2.54-.41.79-.63a3.58,3.58,0,0,0,.8-.85,1.34,1.34,0,0,0,.16-1.13,5.64,5.64,0,0,0-2.32,1.27.72.72,0,0,0-.21-.12c0-.4,0-.8,0-1.19a4.88,4.88,0,0,0-.48.53.43.43,0,0,0-.46-.07.45.45,0,0,0-.25.26,1.19,1.19,0,0,0-.16-.23,1.79,1.79,0,0,0-.3.76h-.1a3.72,3.72,0,0,0-.76-1.46,2.8,2.8,0,0,0,.63,2.26c-.56-.18-1.2-.44-1.37-1a4.12,4.12,0,0,0,.19,1.84c-.18.19-.06.44,0,.64a1.31,1.31,0,0,1-.37,0,1.43,1.43,0,0,1-.47-.37,1,1,0,0,0,0,.24h0a.51.51,0,0,0,0,.13h0a.5.5,0,0,0,0,.12h0l0,.12h0s0,.08,0,.12h0l.05.12h0s0,.08,0,.11v0l.06.11v0l.06.1v0l.06.1v0a.36.36,0,0,0,.07.1v0l.06.09,0,0,.06.09,0,0,.06.09,0,0,.05.07.08.12-1.75-.17,0,.06h0a6.32,6.32,0,0,0,.33.56l0,0c.05.07.1.15.16.22h0a2.39,2.39,0,0,0,.21.26l-.3-.09a3.87,3.87,0,0,0-.59-.13l-.31,0a2.44,2.44,0,0,1,.57.26Zm6.11-2.82h0Z"/><polygon class="cls-40" points="394.45 382.61 401.84 382.88 402.05 383.08 401.77 383.77 394.61 383.19 394.45 382.61"/><polygon class="cls-41" points="394.58 382.64 401.69 382.91 401.63 382.88 394.45 382.61 394.58 382.64"/><path class="cls-42" d="M394.8,381.34a.54.54,0,0,0,.36-.14,1.2,1.2,0,0,1-.82-.56s.93-.23.65-.38a5,5,0,0,1-1-.7,1.18,1.18,0,0,1-.42-.55,3.34,3.34,0,0,1,.78-.11,1.31,1.31,0,0,1,.75.18c.14.08.32.22.45.13a2.7,2.7,0,0,1-1.54-1.58,5.68,5.68,0,0,1,1.71.36,2.23,2.23,0,0,1-.43-.49,2.41,2.41,0,0,1-.22-1.25,3.36,3.36,0,0,1,1.31.68,1.9,1.9,0,0,1-.53-1l.58.17c-.05,0-.19-.26-.25-.31a3,3,0,0,0-.38-.23,2.36,2.36,0,0,1-.63-.55,1.59,1.59,0,0,1-.18-.37,1.83,1.83,0,0,1-.17-.8,3.37,3.37,0,0,1,1.54.92.37.37,0,0,0,.16.09c.12,0,.2-.13.25-.21a3.94,3.94,0,0,0,.36-.63l.34.7a6.44,6.44,0,0,0,1.76-1s0,.87,0,1-.29.5-.18.65a10.23,10.23,0,0,1,1-.59,4.38,4.38,0,0,1-.74,2,3.88,3.88,0,0,1,2.31-1.1,1.11,1.11,0,0,1-.28.73,5.75,5.75,0,0,1-1.32,1.33,3,3,0,0,1,1-.39,7.46,7.46,0,0,1,.72-.23c.12,0-.3.81-.34.87a3,3,0,0,1-.77.74,5.77,5.77,0,0,1,1.78-.73,3.82,3.82,0,0,1-1.28,2,3.91,3.91,0,0,1,1.57-.63.63.63,0,0,1-.12.57,2.21,2.21,0,0,1-.46.4l-1.57,1.11,1.6-.69A3.52,3.52,0,0,1,400,383.4a3.32,3.32,0,0,1-.89.08c-.83,0-1.66,0-2.49,0-.54,0-.82-.34-1.15-.73A9.4,9.4,0,0,1,394.8,381.34Z"/><path class="cls-43" d="M396.78,373.32a.41.41,0,0,1,.58.05.68.68,0,0,1,0,.62l-.06.19a.63.63,0,0,1,.54-.42.65.65,0,0,1,.6.35c.05.12.06.28,0,.35a.34.34,0,0,1-.14.05,2.55,2.55,0,0,1-.78,0,.46.46,0,0,1,.32.57.65.65,0,0,1-.56.41.25.25,0,0,1-.12,0,.22.22,0,0,1-.09-.1.74.74,0,0,1,0-.68.39.39,0,0,1-.32.33.66.66,0,0,1-.47-.11.47.47,0,0,1-.22-.28c-.11-.53.55-.32.76-.44C396.65,373.93,396.48,373.59,396.78,373.32Z"/><circle class="cls-44" cx="397.11" cy="374.41" r="0.27"/><path class="cls-45" d="M401.15,380a3.86,3.86,0,0,0,1.26-1.95,2.64,2.64,0,0,1-1.36,1.08l.13-.27a2.73,2.73,0,0,1-.8.13l.27-.57a1.68,1.68,0,0,1-1.64.78,1.37,1.37,0,0,0,.35-1,8.86,8.86,0,0,1-.95.42,3.47,3.47,0,0,0-.1-.85,3,3,0,0,1-1.21.91l-.08-.6a.35.35,0,0,1-.39,0,.81.81,0,0,1-.27-.31l0,.28a1.79,1.79,0,0,1-1.29-1.44,1.92,1.92,0,0,0,.22.89,2.23,2.23,0,0,0,.43.49,5.68,5.68,0,0,0-1.71-.36,2.72,2.72,0,0,0,1.54,1.58c-.13.09-.31,0-.45-.13a1.31,1.31,0,0,0-.75-.18,3.34,3.34,0,0,0-.78.11,1.18,1.18,0,0,0,.42.55,5,5,0,0,0,1,.7c.28.15-.62.38-.65.38a1.2,1.2,0,0,0,.82.56.54.54,0,0,1-.36.14,9.4,9.4,0,0,0,.67,1.37c.33.39.61.72,1.15.73.83,0,1.66,0,2.49,0a3.32,3.32,0,0,0,.89-.08,3.52,3.52,0,0,0,2.17-2.62l-1.6.69,1.57-1.11a2.21,2.21,0,0,0,.46-.4.63.63,0,0,0,.12-.57A3.91,3.91,0,0,0,401.15,380Z"/><path class="cls-43" d="M398.17,377.75a.31.31,0,0,1,.43.15.53.53,0,0,1-.14.47l-.09.13a.48.48,0,0,1,.88.2c0,.09,0,.22-.11.25H399a1.91,1.91,0,0,1-.59-.16.37.37,0,0,1,.12.5.51.51,0,0,1-.52.19l-.08,0a.19.19,0,0,1,0-.1.64.64,0,0,1,.15-.51.3.3,0,0,1-.31.18.54.54,0,0,1-.33-.18.4.4,0,0,1-.11-.27c0-.42.49-.11.67-.15C397.94,378.17,397.89,377.88,398.17,377.75Z"/><path class="cls-44" d="M398.39,378.69a.21.21,0,1,1-.15-.26A.21.21,0,0,1,398.39,378.69Z"/><path class="cls-43" d="M399.07,377.14a.57.57,0,0,1-.28-.51.34.34,0,0,1,0-.17c.1-.16.32-.16.49-.23a1.25,1.25,0,0,1-.28-.41.58.58,0,0,1,0-.43.34.34,0,0,1,.35-.2c.19.05.26.28.3.47s.06.31.08.47l.17-.22a.8.8,0,0,1,.4-.33.41.41,0,0,1,.51.51.39.39,0,0,1-.08.14l-.12.06a2.69,2.69,0,0,1-.67.19,1.15,1.15,0,0,1,.49.08.47.47,0,0,1,.31.37.48.48,0,0,1-.46.48c-.29,0-.4-.24-.63-.28S399.32,377.27,399.07,377.14Z"/><path class="cls-44" d="M400.06,376.48a.32.32,0,0,1-.32.33.33.33,0,0,1-.33-.33.32.32,0,0,1,.33-.32A.32.32,0,0,1,400.06,376.48Z"/><path class="cls-46" d="M402.17,380.78l-.78.34-.16.06-.66.29,1.5-1.06a.36.36,0,0,0,0-.09,12.65,12.65,0,0,1-1.39.78.48.48,0,0,1,.12-.22l-.75.28a5.61,5.61,0,0,0,.28-1.16c-.22.26-.32.6-.55.84a2,2,0,0,1-1.25.46l.13-.21a1.23,1.23,0,0,0-.49.23,2.69,2.69,0,0,0,.14-1.16,5.12,5.12,0,0,0-.92,1.1,1.63,1.63,0,0,1-.44-.73,1.06,1.06,0,0,0-.12-.47c-.12-.16-.38-.21-.43-.41v.51a1,1,0,0,1-.9-.5l.22.39a6.75,6.75,0,0,0-.7-.16,5.07,5.07,0,0,1-.65-.35c-.21-.14-.41-.3-.61-.46l-.16-.08h0a1.18,1.18,0,0,0,.42.55,5,5,0,0,0,1,.7c.28.15-.62.38-.65.38a1.2,1.2,0,0,0,.82.56.54.54,0,0,1-.36.14,9.4,9.4,0,0,0,.67,1.37c.33.39.61.72,1.15.73.83,0,1.66,0,2.49,0a3.32,3.32,0,0,0,.89-.08A3.52,3.52,0,0,0,402.17,380.78Z"/><path class="cls-43" d="M400.65,382.06a.38.38,0,0,1-.37-.13.27.27,0,0,1-.06-.12c0-.12.1-.22.16-.34a.77.77,0,0,1-.34-.08.39.39,0,0,1-.2-.22.22.22,0,0,1,.09-.26c.12-.07.26,0,.37.1l.26.21,0-.2a.59.59,0,0,1,.06-.35.28.28,0,0,1,.49,0,.15.15,0,0,1,0,.11.14.14,0,0,1,0,.09,1.53,1.53,0,0,1-.26.4.88.88,0,0,1,.29-.18.32.32,0,0,1,.33.05.33.33,0,0,1,0,.46c-.14.14-.31.06-.45.14S400.84,382,400.65,382.06Z"/><path class="cls-44" d="M400.87,381.27a.23.23,0,1,1-.32,0A.22.22,0,0,1,400.87,381.27Z"/><polygon class="cls-47" points="402.05 385.15 395.54 385.15 396.08 393.69 401.52 393.58 402.05 385.15"/><polygon class="cls-48" points="394.57 384.85 395.54 385.15 396.08 393.69 395.15 392.9 394.57 384.85"/><polygon class="cls-2" points="402.05 385.15 401.97 385.89 395.48 385.6 394.62 385.26 394.57 384.85 395.23 385.04 402.05 385.15"/><polygon class="cls-49" points="402.34 385.15 395 385.15 394.88 382.84 402.48 383.09 402.34 385.15"/><polygon class="cls-48" points="394.17 384.85 395 385.15 394.88 382.84 393.87 382.58 394.17 384.85"/><polygon class="cls-41" points="393.87 382.58 394.45 382.61 395 382.75 401.91 383 401.63 382.88 401.84 382.88 402.48 383.09 394.88 382.84 393.87 382.58"/><polygon class="cls-50" points="401.96 386.66 400.54 386.77 400.54 387.63 401.89 387.63 401.96 386.66"/><polygon class="cls-50" points="395.85 389.96 397.29 389.96 397.29 390.76 395.9 390.85 395.85 389.96"/><polygon class="cls-51" points="397.13 393.67 397.29 393.07 399.13 393.07 399.2 393.63 397.13 393.67"/><polygon class="cls-51" points="394.96 384.36 396.27 384.54 396.27 385.15 395 385.15 394.96 384.36"/><polygon class="cls-51" points="399.84 384.36 401.13 384.36 401.13 385.15 399.54 385.15 399.84 384.36"/><polygon class="cls-52" points="397.44 383.61 399.26 383.76 399.26 384.24 397.42 384.28 397.44 383.61"/><polygon class="cls-52" points="402.44 383.62 401.64 383.67 401.69 384.54 402.38 384.54 402.44 383.62"/><polygon class="cls-52" points="396.23 386.78 396.4 387.51 397.99 387.44 397.99 386.91 396.23 386.78"/><polygon class="cls-52" points="399.62 390.89 401.04 390.89 401.04 391.56 399.69 391.56 399.62 390.89"/><polygon class="cls-53" points="393.87 382.58 394.89 383 398.92 382.97 394.88 382.84 393.87 382.58"/><path class="cls-43" d="M395.25,378.38a.3.3,0,0,1,.44,0,.52.52,0,0,1,0,.47l-.05.15a.48.48,0,0,1,.88,0,.22.22,0,0,1,0,.27.19.19,0,0,1-.1,0,2,2,0,0,1-.6,0,.34.34,0,0,1,.25.43.48.48,0,0,1-.43.31.09.09,0,0,1-.09,0,.14.14,0,0,1-.07-.08.57.57,0,0,1,0-.51.31.31,0,0,1-.24.25.5.5,0,0,1-.36-.09.37.37,0,0,1-.18-.21c-.08-.41.43-.25.59-.33C395.15,378.84,395,378.58,395.25,378.38Z"/><circle class="cls-44" cx="395.5" cy="379.21" r="0.21"/><path class="cls-43" d="M398.53,376a.39.39,0,0,1-.22.49.38.38,0,0,1-.27-.71A.39.39,0,0,1,398.53,376Z"/><path class="cls-43" d="M400.7,379a.4.4,0,1,1-.74.28.4.4,0,1,1,.74-.28Z"/><path class="cls-43" d="M397,377.58a.27.27,0,0,1-.15.34.27.27,0,0,1-.35-.15.28.28,0,0,1,.16-.35A.27.27,0,0,1,397,377.58Z"/><path class="cls-43" d="M396.36,380.61a.24.24,0,0,1-.14.32.26.26,0,0,1-.33-.14.27.27,0,0,1,.15-.33A.25.25,0,0,1,396.36,380.61Z"/><polygon class="cls-40" points="437.91 385.92 445.61 386.17 446.1 386.41 445.59 386.77 438.36 386.43 437.91 385.92"/><polygon class="cls-41" points="437.91 385.92 445.61 386.17 445.68 386.22 438.02 385.98 437.91 385.92"/><polygon class="cls-54" points="446.1 388.56 439.22 388.56 439.99 393.46 445.49 393.35 446.1 388.56"/><polygon class="cls-48" points="438.19 388.06 439.22 388.45 439.99 393.46 438.9 392.9 438.19 388.06"/><polygon class="cls-2" points="446.1 388.56 446.01 389.3 439.3 389.22 438.28 388.67 438.19 388.06 438.99 388.45 446.1 388.56"/><path class="cls-55" d="M437.7,385.15a3.22,3.22,0,0,0,1.1.26,2.53,2.53,0,0,0-1.65-1.73,4.74,4.74,0,0,1,1.19.24,5,5,0,0,1-.75-1.15l1.75.17a3.59,3.59,0,0,1-.91-2.09,1.46,1.46,0,0,0,1.21.54,4.15,4.15,0,0,1-.6-2.68c.18.56.81.82,1.37,1a2.79,2.79,0,0,1-.62-2.26,3.59,3.59,0,0,1,.83,1.8,1.84,1.84,0,0,1,.33-1.09,1.42,1.42,0,0,1,.35,1,3.84,3.84,0,0,1,1-1.54c0,.5,0,1,0,1.49a6,6,0,0,1,2.53-1.44,1.31,1.31,0,0,1-.16,1.12,3.44,3.44,0,0,1-.8.86l-.79.63,2-.81a2.94,2.94,0,0,1-1.12,1.72l.7-.07-.5.72a5,5,0,0,0,1.67-.44,2.92,2.92,0,0,1-.77,1.42,9,9,0,0,1-1.27,1,3.09,3.09,0,0,0,1.54.1,3.25,3.25,0,0,1-.5.48l.82,0a2.16,2.16,0,0,1-1.53,1.27,4,4,0,0,0,1.77-.26,4,4,0,0,1-1.58,1.1,4.23,4.23,0,0,1-1,.11,35.34,35.34,0,0,1-3.71-.07,1.59,1.59,0,0,1-1-.51,5.21,5.21,0,0,1-.52-.41C438,385.58,437.79,385.19,437.7,385.15Z"/><path class="cls-56" d="M443.26,386.67a4.23,4.23,0,0,0,1-.11,4,4,0,0,0,1.58-1.1,4,4,0,0,1-1.77.26,2.16,2.16,0,0,0,1.53-1.27l-.82,0a3.25,3.25,0,0,0,.5-.48,3.09,3.09,0,0,1-1.54-.1,9,9,0,0,0,1.27-1,2.92,2.92,0,0,0,.77-1.42l-.07,0a2.14,2.14,0,0,1-1,.84l.13-.26a2,2,0,0,1-1.21.38,1.14,1.14,0,0,0,.15-.23,1.23,1.23,0,0,1-.62.2,1.29,1.29,0,0,0,.15-1,2.11,2.11,0,0,1-1.64,1.3l0-.34-.43.22a5.28,5.28,0,0,0,.24-.77,1.61,1.61,0,0,1-.76.5.75.75,0,0,1-.81-.28.32.32,0,0,0-.06.24,2.36,2.36,0,0,1-1.37-1.13l-.12-.2a3.74,3.74,0,0,0,.9,2l-1.75-.17a5,5,0,0,0,.75,1.15,4.74,4.74,0,0,0-1.19-.24,2.53,2.53,0,0,1,1.65,1.73,3.22,3.22,0,0,1-1.1-.26c.09,0,.25.43.34.53a5.21,5.21,0,0,0,.52.41,1.59,1.59,0,0,0,1,.51A35.34,35.34,0,0,0,443.26,386.67Z"/><path class="cls-57" d="M444.08,385.72a2,2,0,0,0,.83-.38,2.84,2.84,0,0,1-.65.1,1.75,1.75,0,0,0,.31-.59,2.51,2.51,0,0,1-1.92.61,1.28,1.28,0,0,1,.3-.43,3.47,3.47,0,0,1-.61.23l.09-.5a3.09,3.09,0,0,1-1.56.78,3.24,3.24,0,0,0,.21-1.63l-.35.42a.25.25,0,0,1-.14.11c-.09,0-.17-.08-.2-.16a.59.59,0,0,0-.14-.23.74.74,0,0,0-.06.36L439,383.6v.24a3.85,3.85,0,0,1-1.18-.82,1.53,1.53,0,0,0-.19-.18,5.64,5.64,0,0,0,.72,1.08,4.74,4.74,0,0,0-1.19-.24,2.53,2.53,0,0,1,1.65,1.73,3.22,3.22,0,0,1-1.1-.26c.09,0,.25.43.34.53a5.21,5.21,0,0,0,.52.41,1.59,1.59,0,0,0,1,.51,35.34,35.34,0,0,0,3.71.07,4.23,4.23,0,0,0,1-.11,4,4,0,0,0,1.58-1.1A4,4,0,0,1,444.08,385.72Z"/><path class="cls-43" d="M443.73,380.39a.26.26,0,0,1,.33.12.46.46,0,0,1-.11.36l-.07.1a.38.38,0,0,1,.39-.15.36.36,0,0,1,.28.3c0,.07,0,.17-.08.19h-.09a1.76,1.76,0,0,1-.45-.12.26.26,0,0,1,.09.38.38.38,0,0,1-.39.14.07.07,0,0,1-.06,0,.16.16,0,0,1,0-.07.49.49,0,0,1,.11-.39.23.23,0,0,1-.23.14.37.37,0,0,1-.25-.15.28.28,0,0,1-.09-.19c0-.33.37-.1.51-.13C443.56,380.72,443.51,380.49,443.73,380.39Z"/><path class="cls-44" d="M443.9,381.12a.18.18,0,0,1-.21.11.18.18,0,0,1-.11-.2.17.17,0,0,1,.2-.12A.18.18,0,0,1,443.9,381.12Z"/><path class="cls-43" d="M440.64,384.68a.24.24,0,0,1,.32.12c.05.12,0,.25-.1.35l-.07.11a.38.38,0,0,1,.38-.16.4.4,0,0,1,.29.31.18.18,0,0,1-.08.19h-.09a1.16,1.16,0,0,1-.45-.12.29.29,0,0,1,.09.39.38.38,0,0,1-.39.14s-.05,0-.07,0a.11.11,0,0,1,0-.08.42.42,0,0,1,.11-.38.23.23,0,0,1-.24.13.42.42,0,0,1-.25-.14.24.24,0,0,1-.08-.2c0-.32.37-.09.51-.12C440.46,385,440.42,384.78,440.64,384.68Z"/><path class="cls-44" d="M440.8,385.4a.16.16,0,1,1-.31-.09.17.17,0,0,1,.2-.11A.16.16,0,0,1,440.8,385.4Z"/><path class="cls-43" d="M441.36,378.13a.42.42,0,0,1,.55.2.69.69,0,0,1-.18.6l-.11.18a.6.6,0,0,1,.64-.26.62.62,0,0,1,.48.51c0,.12,0,.28-.13.32a.26.26,0,0,1-.15,0,2.51,2.51,0,0,1-.76-.2.45.45,0,0,1,.15.64.61.61,0,0,1-.66.24.22.22,0,0,1-.11-.05.18.18,0,0,1-.05-.12.76.76,0,0,1,.18-.66.37.37,0,0,1-.4.23.63.63,0,0,1-.42-.24.47.47,0,0,1-.14-.33c0-.54.63-.16.86-.21C441.07,378.68,441,378.3,441.36,378.13Z"/><path class="cls-44" d="M441.64,379.35a.28.28,0,0,1-.34.19.28.28,0,1,1,.15-.53A.28.28,0,0,1,441.64,379.35Z"/><path class="cls-43" d="M439.27,380.51a.33.33,0,0,1,.45,0,.55.55,0,0,1,0,.47l-.05.16a.47.47,0,0,1,.41-.33.49.49,0,0,1,.46.27.22.22,0,0,1,0,.27l-.11,0a2,2,0,0,1-.59,0,.34.34,0,0,1,.24.43.46.46,0,0,1-.43.32.15.15,0,0,1-.09,0s0,0-.07-.08a.57.57,0,0,1,0-.51.29.29,0,0,1-.24.25.53.53,0,0,1-.36-.09.35.35,0,0,1-.17-.21c-.08-.4.42-.24.58-.33C439.17,381,439,380.71,439.27,380.51Z"/><circle class="cls-44" cx="439.52" cy="381.34" r="0.21"/><path class="cls-43" d="M442.91,384.35a.47.47,0,0,1-.39-.28.4.4,0,0,1,0-.15c0-.15.19-.23.29-.34a.93.93,0,0,1-.36-.21.48.48,0,0,1-.17-.31.27.27,0,0,1,.19-.27c.16,0,.3.11.4.24l.22.32.05-.23a.7.7,0,0,1,.18-.39.35.35,0,0,1,.34-.07.36.36,0,0,1,.22.27.2.2,0,0,1,0,.13.31.31,0,0,1-.07.09,2,2,0,0,1-.43.38,1.15,1.15,0,0,1,.4-.12.42.42,0,0,1,.36.17.38.38,0,0,1-.17.51c-.21.12-.38,0-.57,0S443.14,384.36,442.91,384.35Z"/><path class="cls-44" d="M443.41,383.5a.27.27,0,0,1-.49.24.27.27,0,0,1,.49-.24Z"/><polygon class="cls-58" points="446.44 388.56 438.73 388.56 438.33 386.29 446.6 386.5 446.44 388.56"/><polygon class="cls-48" points="437.96 388.03 438.73 388.56 438.33 386.29 437.44 385.89 437.96 388.03"/><polygon class="cls-41" points="437.44 385.89 437.91 385.92 438.47 386.2 445.94 386.41 445.61 386.17 445.86 386.17 446.6 386.5 438.33 386.29 437.44 385.89"/><polygon class="cls-50" points="446.55 386.89 445.57 387.03 445.57 387.46 446.52 387.52 446.55 386.89"/><polygon class="cls-50" points="444.29 387.58 444.22 388.15 442.17 388.15 442.22 387.45 444.29 387.58"/><path class="cls-50" d="M439.06,386.31l0,.46h1.72a3.24,3.24,0,0,0,.13-.41Z"/><polygon class="cls-50" points="439.42 389.74 441.41 389.88 441.41 390.76 439.6 390.93 439.42 389.74"/><polygon class="cls-50" points="445.94 389.86 444.81 389.79 444.75 389.05 446.06 388.95 445.94 389.86"/><polygon class="cls-50" points="440.81 393.44 440.88 392.98 443.13 392.98 443.23 393.39 440.81 393.44"/><polygon class="cls-52" points="438.52 387.34 440.24 387.42 440.24 388 438.64 388.06 438.52 387.34"/><polygon class="cls-52" points="442.76 390.88 444.29 390.88 444.29 391.57 442.91 391.57 442.76 390.88"/><polygon class="cls-52" points="444.79 393.36 445.08 392.16 445.64 392.16 445.49 393.35 444.79 393.36"/><polygon class="cls-53" points="437.44 385.89 438.36 386.43 442.06 386.39 438.33 386.29 437.44 385.89"/><circle class="cls-43" cx="442.66" cy="380.54" r="0.32"/><path class="cls-43" d="M441.88,381.64a.5.5,0,0,1-.51.51.51.51,0,0,1-.51-.51.51.51,0,0,1,.51-.51A.51.51,0,0,1,441.88,381.64Z"/><path class="cls-43" d="M440.63,383.14a.22.22,0,1,1-.22-.22A.22.22,0,0,1,440.63,383.14Z"/><path class="cls-43" d="M443.45,384.86a.22.22,0,1,1-.22-.22A.22.22,0,0,1,443.45,384.86Z"/><path class="cls-2" d="M433.92,351.64s0-.06,0-.08v0a.86.86,0,0,0-.07-.21h0l-.11-.19a.55.55,0,0,0-.17-.17.48.48,0,0,0-.17-.05,1.39,1.39,0,0,0-1.46.76.53.53,0,0,0-.22.4c-.05,0-.06-.18-.11-.24a.24.24,0,0,0-.27-.08.2.2,0,0,0-.12.12.26.26,0,0,0,.08.26.87.87,0,0,0,.24.15l-.08,0a1.14,1.14,0,0,0-.81-.09.87.87,0,0,0-.38.33c0,.05-.17.41-.07.45a1.43,1.43,0,0,0-.79-.08l-.07.31a.18.18,0,0,0-.07-.05,2,2,0,0,0-.36-.18.59.59,0,0,0,.52-.18.39.39,0,0,0,.11-.22.27.27,0,0,0-.08-.24.33.33,0,0,0-.29-.05.64.64,0,0,0-.4.4c-.05-.07,0-.23-.05-.32a.3.3,0,0,0-.3-.18.25.25,0,0,0-.17.11.33.33,0,0,0,0,.32.92.92,0,0,0,.23.25,1.05,1.05,0,0,0-.3-.15.39.39,0,0,0-.32.06l-.05.05a2.22,2.22,0,0,0-.81.06,2.29,2.29,0,0,0-1.21.91v0a.2.2,0,0,0-.17-.18.14.14,0,0,0-.11,0,.37.37,0,0,0-.18.26.86.86,0,0,0,0,.16s0,.12,0,.12-.09-.07-.12-.09a.46.46,0,0,0-.16-.07.3.3,0,0,0-.26.06.65.65,0,0,0-.27-.05.69.69,0,0,0-.68.83.41.41,0,0,0-.64.19,1,1,0,0,0-.95-.65,1,1,0,0,0-.33.06.62.62,0,0,0,.16-.2.42.42,0,0,0,.06-.27.3.3,0,0,0-.16-.22.34.34,0,0,0-.31,0,.62.62,0,0,0-.3.52c-.07-.05-.08-.23-.15-.31a.33.33,0,0,0-.36-.1.16.16,0,0,0-.08.06,3.5,3.5,0,0,0-1.43-1.13.09.09,0,0,0,0,0c0-.13-.17-.19-.3-.22a2.71,2.71,0,0,0-.41-.09.6.6,0,0,0,.47-.31.48.48,0,0,0,.05-.26.29.29,0,0,0-.15-.22.35.35,0,0,0-.31,0,.62.62,0,0,0-.28.5c-.07-.05-.08-.22-.15-.3a.3.3,0,0,0-.34-.1.26.26,0,0,0-.15.16.35.35,0,0,0,.1.32,1,1,0,0,0,.31.19,1.09,1.09,0,0,0-.35-.07.44.44,0,0,0-.31.15l0,.07a3.38,3.38,0,0,0-2.33,1.74,1.44,1.44,0,0,0-.9-1.07,1.35,1.35,0,0,0-.56-.09l-.34-.06a.75.75,0,0,0,.6-.4.51.51,0,0,0,.06-.32.33.33,0,0,0-.18-.27.42.42,0,0,0-.39,0,.79.79,0,0,0-.36.64c-.09-.06-.1-.29-.18-.38a.42.42,0,0,0-.44-.13.32.32,0,0,0-.18.2.08.08,0,0,0,0,0,1.15,1.15,0,0,0-.25-.12,1.28,1.28,0,0,0-1.32.36.52.52,0,0,0,0-.75.49.49,0,0,0-.42-.11c-.1,0-.25.13-.35,0s0-.3-.05-.4a.65.65,0,0,0-.19-.33.73.73,0,0,0-.79,0,1.16,1.16,0,0,0-.26-.56.45.45,0,0,0-.38-.11h-.07l0,0h0l-.05.05a.39.39,0,0,0-.07.26V351a.72.72,0,0,0,.05.21.27.27,0,0,0,.15.13.58.58,0,0,0-.26.18l-.06.08a.56.56,0,0,0-.08.2s0,.07,0,.11,0,.07,0,.1a.52.52,0,0,0,.13.28.64.64,0,0,0,.15.13l.18.09.1,0a.77.77,0,0,0,0,.67l.09.13.06.07a2.24,2.24,0,0,0,.37.28.55.55,0,0,0,.25.07.16.16,0,0,0,.06.08.18.18,0,0,0,.16,0,.5.5,0,0,0,.24-.19l.08-.06-.06.19a.41.41,0,0,0,0,.29.23.23,0,0,0,.16.13v.1a1.37,1.37,0,0,1,0,.19c0,.13.05.25.08.37s.08.24.13.36a1.94,1.94,0,0,0,.28.48,1.8,1.8,0,0,0,.38.4,1.77,1.77,0,0,0,.32.21,2.08,2.08,0,0,0,2,0,1.29,1.29,0,0,0,.3-.22l.13-.13s0,.07,0,.11,0,.15.05.22a.49.49,0,0,1,0,.11,1.24,1.24,0,0,0,.1.2,1.32,1.32,0,0,0,.19.29,1.14,1.14,0,0,0,.15.16l.09.08a1.6,1.6,0,0,0,.38.23,1.39,1.39,0,0,0,.33.1,1.23,1.23,0,0,0,.33,0h.23a1.7,1.7,0,0,0,.83-.35.36.36,0,0,0,0,.1.69.69,0,0,0,0,.2.36.36,0,0,0,0,.09.5.5,0,0,0,.3.25.51.51,0,0,0,.3,0,.51.51,0,0,0,.24-.17.52.52,0,0,0,.1-.18,2.18,2.18,0,0,0,.28.25,3.79,3.79,0,0,0,.82.49l.35.14a4,4,0,0,0,1.32.17,2.45,2.45,0,0,0,.38,0l.19,0a3.75,3.75,0,0,0,1.23-.5l.16-.11.3-.23.27-.26.13-.15a2.1,2.1,0,0,0,.67.55,2.26,2.26,0,0,0,1.08.25l.37-.05a2.15,2.15,0,0,0,1-.51,1.53,1.53,0,0,0,.18-.18,1.49,1.49,0,0,0,.15-.2l.11.07a.74.74,0,0,0,.21.07,1.27,1.27,0,0,0,.58,0,2.72,2.72,0,0,0,.89-.47,1.55,1.55,0,0,1,.35-.21l.12,0a2.56,2.56,0,0,1,.39,0,1,1,0,0,0,.59-.3.2.2,0,0,0,.2.07.27.27,0,0,0,.16-.23.74.74,0,0,0,0-.21h.05c.12,0,.24.05.37.06a2.59,2.59,0,0,0,.92,0,1.38,1.38,0,0,0,.27-.08,1.5,1.5,0,0,0,.32-.19,1.21,1.21,0,0,0,.2-.19l.11-.15s0-.05,0-.08a.79.79,0,0,0,.08-.26.42.42,0,0,0,.27,0l.07,0a.77.77,0,0,0,.44-.56s0,0,0-.06a.84.84,0,0,1,.14-.24l0-.05a.45.45,0,0,0,.05-.24v0c0-.09,0-.15-.12-.14a2.23,2.23,0,0,0,.43-.1,1,1,0,0,0,.54-.42.47.47,0,0,0,.06-.38l0,0a.31.31,0,0,0-.09-.11.22.22,0,0,0-.13-.06h-.05a.35.35,0,0,0,.2-.14l.05-.06a.54.54,0,0,0,.09-.24.22.22,0,0,0,0-.08.33.33,0,0,0,0-.1Zm-8.35,2.56h0Zm-.34.12h0Zm-3.57.17,0,0h-.05Zm-8.8-1h0s0,0,0,0l0-.06A.24.24,0,0,0,412.86,353.46Zm-.1-.34Z"/><path class="cls-59" d="M407.62,350.65a.55.55,0,0,1,.32-.26c-.14,0-.18-.2-.2-.34a.47.47,0,0,1,.07-.35.38.38,0,0,1,.55,0,1.08,1.08,0,0,1,.26.55.75.75,0,0,1,.79,0,.56.56,0,0,1,.19.33c0,.1,0,.33,0,.4s.25,0,.35-.05a.49.49,0,0,1,.42.12.52.52,0,0,1,0,.75,1.24,1.24,0,0,1,2.17.7,1.42,1.42,0,0,1,2.28.85A3.31,3.31,0,0,1,421,354a1,1,0,0,1,1.9,0,.41.41,0,0,1,.64-.2.69.69,0,0,1,.68-.83,1.15,1.15,0,0,1,1,.7,2.14,2.14,0,0,1,3.79-1.07l.15-.71a1.53,1.53,0,0,1,.79.09c-.1,0,0-.4.07-.45a.81.81,0,0,1,.38-.33c.41-.17.75.15,1.15.16a1.38,1.38,0,0,1,.47-1.09,1.4,1.4,0,0,1,1.13-.33.49.49,0,0,1,.17.06.55.55,0,0,1,.17.17.94.94,0,0,1,.2.62.59.59,0,0,1-.35.53.31.31,0,0,1,.29.22.46.46,0,0,1-.06.38,1.19,1.19,0,0,1-1,.52c.18,0,.12.36.07.43s-.14.15-.18.35a.66.66,0,0,1-.78.57,1.26,1.26,0,0,1-1,1,3.7,3.7,0,0,1-1.48-.07,1,1,0,0,1-.8.69c-.13,0-.26,0-.39,0a1.37,1.37,0,0,0-.47.26c-.52.39-1.25.73-1.79.36a2.14,2.14,0,0,1-3.43.14,3.71,3.71,0,0,1-5.43.27.55.55,0,0,1-.64.36.53.53,0,0,1-.35-.64,1.68,1.68,0,0,1-2.73-1.18,2,2,0,0,1-2.72.16,2.73,2.73,0,0,1-.81-2.74.7.7,0,0,1-1,.32c-.45-.26-.75-.62-.56-1.15a.68.68,0,0,1-.56-.52A.6.6,0,0,1,407.62,350.65Z"/><path class="cls-60" d="M432.89,351.3c.14.09.1.33,0,.43a.8.8,0,0,1-.51.08c.21.25-.1.7-.4.59a1.17,1.17,0,0,1-.17.66,1.35,1.35,0,0,1-.6-.05.94.94,0,0,1-.82.79,2.94,2.94,0,0,1-1.21-.11.82.82,0,0,1-1.47.62,1.44,1.44,0,0,1-2.12.46,2,2,0,0,1-.75,1.22,1,1,0,0,1-1.32-.19c-.23.17-.56,0-.72-.28s-.29-.54-.56-.64c-.05.69-1,2.17-3.27,1.71a2.21,2.21,0,0,1-1.61-1.44c-.08.21-.64.5-.78.33-.1.25-.58.13-.55-.14a1.53,1.53,0,0,1-1.52,0,1.56,1.56,0,0,1-.76-1.32,2,2,0,0,1-2.64.66,2.84,2.84,0,0,1-1.16-2.75c-.31.21-.82.55-1.16.37s-.38-.77,0-.9a1.18,1.18,0,0,1-.72-.33c-.17-.21-.1-.61.17-.65a.64.64,0,0,1-.16-.85.27.27,0,0,0-.2.11.47.47,0,0,0-.07.35c0,.14.06.3.2.34a.55.55,0,0,0-.32.26.6.6,0,0,0-.09.41.68.68,0,0,0,.56.52c-.19.53.11.89.56,1.15a.7.7,0,0,0,1-.32,2.73,2.73,0,0,0,.81,2.74,2,2,0,0,0,2.72-.16,1.68,1.68,0,0,0,2.73,1.18.53.53,0,0,0,.35.64.55.55,0,0,0,.64-.36,3.71,3.71,0,0,0,5.43-.27,2.14,2.14,0,0,0,3.43-.14c.54.37,1.27,0,1.79-.36a1.37,1.37,0,0,1,.47-.26c.13,0,.26,0,.39,0a1,1,0,0,0,.8-.69,3.7,3.7,0,0,0,1.48.07,1.26,1.26,0,0,0,1-1,.66.66,0,0,0,.78-.57c0-.2.08-.2.18-.35s.11-.45-.07-.43a1.19,1.19,0,0,0,1-.52.46.46,0,0,0,.06-.38.31.31,0,0,0-.29-.22.59.59,0,0,0,.35-.53.92.92,0,0,0-.09-.43C433.42,350.72,433.19,351.2,432.89,351.3Z"/><path class="cls-61" d="M415.9,354.91a.48.48,0,0,1,0-.39.35.35,0,0,1,.11-.1.27.27,0,0,1,.3.1.53.53,0,0,1,.09.33,1,1,0,0,1,0,.35,1.11,1.11,0,0,1,.3-.22.36.36,0,0,1,.35,0,.31.31,0,0,1,.09.11.44.44,0,0,1,.06.16.26.26,0,0,1-.16.22.45.45,0,0,1-.28,0,.89.89,0,0,1-.28-.07l.31.14a.3.3,0,0,1,.17.14.35.35,0,0,1,0,.25.27.27,0,0,1-.11.21.2.2,0,0,1-.11,0,.38.38,0,0,1-.29-.22,1.5,1.5,0,0,1-.11-.36,2.11,2.11,0,0,0,0,.25.53.53,0,0,1,0,.25.21.21,0,0,1-.19.13.25.25,0,0,1-.14-.06.44.44,0,0,1-.13-.14.26.26,0,0,1,0-.21.72.72,0,0,1,.11-.19l.13-.18a.76.76,0,0,1-.5.24.28.28,0,0,1-.18,0,.17.17,0,0,1-.07-.14.34.34,0,0,1,.26-.32.55.55,0,0,1,.22,0s.16.05.19,0-.05-.11-.06-.14A.61.61,0,0,1,415.9,354.91Z"/><path class="cls-62" d="M416.45,355.35a.16.16,0,0,1-.17.17.17.17,0,0,1-.17-.17.18.18,0,0,1,.17-.17A.17.17,0,0,1,416.45,355.35Z"/><path class="cls-61" d="M425.05,352.88a.35.35,0,0,1,.18-.26.2.2,0,0,1,.11,0,.21.21,0,0,1,.17.19.4.4,0,0,1-.06.26.76.76,0,0,1-.17.23,1,1,0,0,1,.29,0,.32.32,0,0,1,.24.16.5.5,0,0,1,0,.12.24.24,0,0,1,0,.12.18.18,0,0,1-.19.09.33.33,0,0,1-.21-.09.75.75,0,0,1-.16-.15l.16.21a.26.26,0,0,1,.07.16.33.33,0,0,1-.08.19.21.21,0,0,1-.16.1l-.09,0a.29.29,0,0,1-.11-.26.73.73,0,0,1,.07-.29.61.61,0,0,0-.09.18.48.48,0,0,1-.12.16.19.19,0,0,1-.19,0,.31.31,0,0,1-.07-.09.42.42,0,0,1,0-.15.29.29,0,0,1,.09-.15l.15-.08.16-.08a.56.56,0,0,1-.44,0,.2.2,0,0,1-.11-.09.15.15,0,0,1,0-.13.27.27,0,0,1,.3-.12l.16.08s.09.1.13.09,0-.1,0-.13A.76.76,0,0,1,425.05,352.88Z"/><path class="cls-62" d="M425.27,353.4a.14.14,0,0,1-.19.05.13.13,0,0,1-.05-.18.14.14,0,0,1,.18-.06A.15.15,0,0,1,425.27,353.4Z"/><path class="cls-61" d="M413.15,351.21a.42.42,0,0,1,.39,0,.31.31,0,0,1,.18.26.54.54,0,0,1-.06.33.77.77,0,0,1-.59.4,4.76,4.76,0,0,1,.52.1.52.52,0,0,1,.38.29.33.33,0,0,1-.19.35.56.56,0,0,1-.42,0,.76.76,0,0,1-.48-.48,1.1,1.1,0,0,1,.2.76.41.41,0,0,1-.25.37.33.33,0,0,1-.38-.2.69.69,0,0,1,0-.47c0-.15.11-.29.15-.44a1.26,1.26,0,0,1-.57.55.25.25,0,0,1-.24,0,.29.29,0,0,1-.12-.16.55.55,0,0,1,0-.53.44.44,0,0,1,.38-.19,1.32,1.32,0,0,1,.44.08,1.23,1.23,0,0,1-.38-.24.41.41,0,0,1-.13-.4.33.33,0,0,1,.18-.2.4.4,0,0,1,.44.13c.08.09.1.31.18.37A.77.77,0,0,1,413.15,351.21Z"/><path class="cls-62" d="M413,352.31a.25.25,0,1,1-.13-.33A.24.24,0,0,1,413,352.31Z"/><path class="cls-61" d="M421.37,352.79a.32.32,0,0,1,.31,0,.3.3,0,0,1,.16.22.43.43,0,0,1-.06.27.62.62,0,0,1-.48.33,2.07,2.07,0,0,1,.42.08c.14,0,.28.1.32.24a.26.26,0,0,1-.16.28.45.45,0,0,1-.34,0,.59.59,0,0,1-.39-.39.87.87,0,0,1,.16.62.36.36,0,0,1-.21.31.27.27,0,0,1-.31-.17.55.55,0,0,1,0-.38c0-.12.09-.24.12-.37a1,1,0,0,1-.46.46.26.26,0,0,1-.21,0,.3.3,0,0,1-.09-.13.46.46,0,0,1,0-.44.36.36,0,0,1,.31-.15,1.13,1.13,0,0,1,.36.06,1,1,0,0,1-.31-.19.36.36,0,0,1-.11-.33.28.28,0,0,1,.15-.17.33.33,0,0,1,.36.11c.07.07.08.26.15.31A.61.61,0,0,1,421.37,352.79Z"/><path class="cls-62" d="M421.28,353.69a.21.21,0,0,1-.27.11.2.2,0,0,1-.11-.27.2.2,0,0,1,.27-.11A.21.21,0,0,1,421.28,353.69Z"/><path class="cls-61" d="M418.39,350.71a.35.35,0,0,1,.31,0,.27.27,0,0,1,.15.21.47.47,0,0,1-.05.26.61.61,0,0,1-.47.32,2.7,2.7,0,0,1,.41.08c.13,0,.27.1.3.23a.25.25,0,0,1-.15.28.53.53,0,0,1-.33,0,.6.6,0,0,1-.38-.38.86.86,0,0,1,.16.6.35.35,0,0,1-.2.3.27.27,0,0,1-.3-.17.59.59,0,0,1,0-.37,2.06,2.06,0,0,0,.12-.35.94.94,0,0,1-.44.44.23.23,0,0,1-.2,0c-.05,0-.07-.07-.1-.12a.5.5,0,0,1,0-.43.37.37,0,0,1,.31-.15,1.43,1.43,0,0,1,.35.06,1.2,1.2,0,0,1-.31-.18.36.36,0,0,1-.1-.32.26.26,0,0,1,.15-.17.32.32,0,0,1,.34.11c.07.07.08.25.15.3A.63.63,0,0,1,418.39,350.71Z"/><path class="cls-62" d="M418.31,351.59a.19.19,0,0,1-.26.1.19.19,0,0,1-.11-.26.2.2,0,0,1,.26-.11A.21.21,0,0,1,418.31,351.59Z"/><path class="cls-61" d="M409.81,351.76a.28.28,0,0,1,.25,0,.24.24,0,0,1,.12.17.34.34,0,0,1,0,.2.52.52,0,0,1-.38.26,1.91,1.91,0,0,1,.33.06.32.32,0,0,1,.24.18.21.21,0,0,1-.12.22.34.34,0,0,1-.26,0,.47.47,0,0,1-.3-.3.68.68,0,0,1,.12.48.27.27,0,0,1-.16.24.22.22,0,0,1-.24-.13.51.51,0,0,1,0-.3,2.29,2.29,0,0,0,.09-.28.79.79,0,0,1-.35.35.18.18,0,0,1-.16,0,.2.2,0,0,1-.07-.1.37.37,0,0,1,0-.34.3.3,0,0,1,.25-.12.65.65,0,0,1,.27.05.87.87,0,0,1-.24-.15.29.29,0,0,1-.08-.26.2.2,0,0,1,.12-.12.24.24,0,0,1,.27.08c0,.06.06.2.12.24A.5.5,0,0,1,409.81,351.76Z"/><path class="cls-62" d="M409.75,352.46a.16.16,0,0,1-.3-.12.16.16,0,0,1,.21-.09A.17.17,0,0,1,409.75,352.46Z"/><path class="cls-61" d="M428.88,351.32a.3.3,0,0,1,.29.05.26.26,0,0,1,.08.23.38.38,0,0,1-.11.23.56.56,0,0,1-.52.17,2,2,0,0,1,.36.18c.11.07.23.16.22.29a.24.24,0,0,1-.21.22.41.41,0,0,1-.31-.09.54.54,0,0,1-.24-.44.8.8,0,0,1,0,.59.35.35,0,0,1-.26.23.26.26,0,0,1-.23-.23.47.47,0,0,1,.1-.34c.06-.1.14-.19.2-.3a.88.88,0,0,1-.53.29.24.24,0,0,1-.18,0,.33.33,0,0,1,0-.15.42.42,0,0,1,.11-.39.36.36,0,0,1,.32-.06,1.05,1.05,0,0,1,.3.15,1.37,1.37,0,0,1-.23-.25.33.33,0,0,1,0-.32.23.23,0,0,1,.18-.12.31.31,0,0,1,.29.19c0,.08,0,.25.05.31A.62.62,0,0,1,428.88,351.32Z"/><path class="cls-62" d="M428.58,352.11a.21.21,0,0,1-.28,0,.2.2,0,0,1,0-.27.19.19,0,0,1,.27,0A.2.2,0,0,1,428.58,352.11Z"/><path class="cls-61" d="M429.36,353.69a.25.25,0,0,1,.25,0,.24.24,0,0,1,.12.17.33.33,0,0,1-.05.21.5.5,0,0,1-.37.25,1.91,1.91,0,0,1,.33.06.32.32,0,0,1,.24.18.2.2,0,0,1-.12.22.36.36,0,0,1-.27,0,.44.44,0,0,1-.29-.3.75.75,0,0,1,.12.48c0,.1-.06.21-.16.24a.22.22,0,0,1-.24-.13.44.44,0,0,1,0-.3c0-.09.07-.18.09-.28a.84.84,0,0,1-.35.35.18.18,0,0,1-.16,0,.2.2,0,0,1-.08-.1.4.4,0,0,1,0-.34.29.29,0,0,1,.25-.12.86.86,0,0,1,.27.05.87.87,0,0,1-.24-.15.27.27,0,0,1-.08-.25.2.2,0,0,1,.12-.13.24.24,0,0,1,.27.08c.05.06.06.2.11.24A.48.48,0,0,1,429.36,353.69Z"/><path class="cls-62" d="M429.3,354.38a.16.16,0,1,1-.09-.21A.17.17,0,0,1,429.3,354.38Z"/><path class="cls-61" d="M431.66,350.73a.32.32,0,0,1,.25,0,.27.27,0,0,1,.12.17.31.31,0,0,1,0,.21.45.45,0,0,1-.37.25l.33.07a.32.32,0,0,1,.24.18.22.22,0,0,1-.12.22.36.36,0,0,1-.27,0,.46.46,0,0,1-.29-.3.72.72,0,0,1,.12.48.27.27,0,0,1-.16.23.21.21,0,0,1-.24-.13.41.41,0,0,1,0-.29c0-.1.07-.19.09-.28a.81.81,0,0,1-.36.35.19.19,0,0,1-.15,0,.2.2,0,0,1-.08-.1.4.4,0,0,1,0-.34.32.32,0,0,1,.25-.12,1.28,1.28,0,0,1,.27,0,1.16,1.16,0,0,1-.24-.14.29.29,0,0,1-.08-.26.2.2,0,0,1,.12-.13.26.26,0,0,1,.27.08c.05.06.06.2.11.24A.51.51,0,0,1,431.66,350.73Z"/><path class="cls-62" d="M431.6,351.42a.15.15,0,0,1-.21.09.16.16,0,0,1-.09-.21.16.16,0,0,1,.3.12Z"/><path class="cls-61" d="M411.82,353.72c.05.2,0,.38-.13.41s-.25-.11-.29-.31,0-.38.13-.41S411.78,353.52,411.82,353.72Z"/><path class="cls-61" d="M409,351c0,.15-.15.25-.24.23s-.12-.17-.08-.33.16-.25.25-.22S409.05,350.81,409,351Z"/><path class="cls-61" d="M416.6,352.83c-.1.15-.25.23-.34.17s-.08-.23,0-.38.25-.22.34-.17S416.7,352.68,416.6,352.83Z"/><path class="cls-61" d="M420.22,354.89c-.05.08-.13.13-.18.1s-.05-.12,0-.21.13-.13.18-.1S420.27,354.8,420.22,354.89Z"/><path class="cls-61" d="M418.78,355.21c.12.2.12.42,0,.48s-.3,0-.42-.23-.11-.42,0-.48S418.67,355,418.78,355.21Z"/><path class="cls-61" d="M424.62,354.68c.1.18.1.37,0,.43s-.27,0-.38-.21-.09-.37,0-.43S424.52,354.51,424.62,354.68Z"/><path class="cls-61" d="M427.53,353.47c-.06.17-.19.28-.29.24s-.13-.2-.07-.37.2-.28.3-.24S427.6,353.3,427.53,353.47Z"/><path class="cls-61" d="M430.6,352.72c0,.14-.11.24-.19.23s-.13-.14-.11-.28.11-.24.19-.23S430.62,352.58,430.6,352.72Z"/><path class="cls-61" d="M410.65,353.57c0,.14-.07.26-.15.26s-.15-.12-.15-.26.06-.26.15-.26S410.65,353.42,410.65,353.57Z"/><path class="cls-61" d="M419.24,352.88c.05.13,0,.26-.05.29s-.18-.05-.22-.18,0-.26,0-.29S419.19,352.75,419.24,352.88Z"/><path class="cls-61" d="M413.21,354.08c-.11.11-.26.15-.32.09s0-.22.08-.33.26-.15.32-.08S413.32,354,413.21,354.08Z"/><path class="cls-61" d="M417.6,354.52c0,.11-.06.2-.12.2s-.12-.09-.12-.2.05-.21.12-.21S417.6,354.41,417.6,354.52Z"/><path class="cls-61" d="M421.69,355.4c0,.13-.06.23-.14.23s-.13-.1-.13-.23.06-.23.13-.23S421.69,355.27,421.69,355.4Z"/><path class="cls-61" d="M428.23,353.47c0,.1-.05.18-.1.18s-.11-.08-.11-.18.05-.18.11-.18S428.23,353.37,428.23,353.47Z"/><path class="cls-61" d="M432.5,351.08c.12,0,.2.1.19.17s-.12.1-.24.08-.2-.1-.18-.17S432.39,351.06,432.5,351.08Z"/><path class="cls-2" d="M426.7,367.32l.15-.3s-.07,0-.09-.08,0,0,0-.06a.06.06,0,0,1,0,0,0,0,0,0,1,0,0,.23.23,0,0,1,.07-.1l.1-.09a.34.34,0,0,0,.06-.06s0,0,0,0l0,0a.05.05,0,0,0,0,0l0,0a.82.82,0,0,0-.36-1.07.5.5,0,0,0,0-.57.14.14,0,0,0,0-.09.44.44,0,0,0-.12-.18s0,0,0,0l.14.07a.23.23,0,0,0,.23,0,.15.15,0,0,0,0-.2c0-.06-.12-.07-.18-.09l-.27-.06v0h.11l.2,0A.36.36,0,0,0,427,364a.33.33,0,0,0,0-.17.17.17,0,0,0-.08-.13s-.1,0-.14,0l-.38.27,0,0,.08-.13.15-.31a.44.44,0,0,0,.05-.15.14.14,0,0,0-.06-.15.14.14,0,0,0-.17,0h0a.57.57,0,0,0-.11-.16.75.75,0,0,0-.49-.17.52.52,0,0,0,.31-.25.38.38,0,0,0,0-.21.22.22,0,0,0-.12-.18.28.28,0,0,0-.25,0,.51.51,0,0,0-.24.41c-.05,0-.06-.18-.12-.24a.13.13,0,0,0-.07-.06.7.7,0,0,0,0-.16,1.3,1.3,0,0,0-.27-.52.62.62,0,0,0-.27-.21,1.1,1.1,0,0,0-.26,0h-.52a.27.27,0,0,0,.15-.29c0-.13-.18-.19-.31-.23a1.89,1.89,0,0,0-.4-.08h0a.61.61,0,0,0,.46-.32.44.44,0,0,0,0-.27.27.27,0,0,0-.15-.22.36.36,0,0,0-.32,0,.64.64,0,0,0-.29.52c-.07-.05-.08-.23-.15-.31a.33.33,0,0,0-.36-.1.28.28,0,0,0-.13.11.69.69,0,0,0-.37-.1,4.47,4.47,0,0,0-1,.25l-.47.09a.41.41,0,0,0,0-.11.14.14,0,0,0-.08-.13c-.05,0-.09,0-.14.05l-.45.34h0a.67.67,0,0,0,.13-.21l.14-.31a.43.43,0,0,0,.05-.16.14.14,0,0,0-.06-.15.17.17,0,0,0-.18,0,.42.42,0,0,0-.11.15,1.14,1.14,0,0,0-.1.36s0,.15,0,.16-.05,0-.06-.06-.07-.21-.11-.32l0,0a.06.06,0,0,0-.09,0,.1.1,0,0,0,0,.09.62.62,0,0,0,.11.34l.06.1a.53.53,0,0,1-.15-.15.79.79,0,0,0-.27-.2l-.09,0a.08.08,0,0,0-.07.05s0,.09.08.12a2.91,2.91,0,0,0,.49.27,1.51,1.51,0,0,1-.3-.1.43.43,0,0,0-.18-.06.18.18,0,0,0-.15.13,1.59,1.59,0,0,0-.43-.06,1,1,0,0,0-.77.26.6.6,0,0,0-.08.75,6.35,6.35,0,0,0-1.07-.09.45.45,0,0,0-.28.07.42.42,0,0,0-.14.29,2.39,2.39,0,0,0,0,1l-.06-.08-.21-.27a.46.46,0,0,0-.12-.12.15.15,0,0,0-.16,0,.16.16,0,0,0-.07.16.4.4,0,0,0,.09.17.81.81,0,0,0,.27.25s.14.06.14.08-.06,0-.08,0l-.34,0h-.05s0,.05,0,.09a.13.13,0,0,0,.06.07.53.53,0,0,0,.35.06h.12a.47.47,0,0,1-.2.06.57.57,0,0,0-.3.15l-.06.06a.14.14,0,0,0,0,.09h0a.61.61,0,0,0-.18.26.63.63,0,0,0,.22.65.84.84,0,0,0-.44.58v0a.3.3,0,0,0-.21,0,.29.29,0,0,0-.15.16.33.33,0,0,0,.11.32,1.08,1.08,0,0,0,.29.18,1.28,1.28,0,0,0-.34-.06.37.37,0,0,0-.3.15.45.45,0,0,0,0,.42.3.3,0,0,0,.09.13.28.28,0,0,0,.2,0,1,1,0,0,0,.44-.43c0,.12-.08.23-.12.35a.43.43,0,0,1,0,.05,1.28,1.28,0,0,0-.19.62h0v.14a.28.28,0,0,0,0,.09v.05s0,0,0,.08l0,.06a.25.25,0,0,0,0,.07l0,.05,0,.07,0,.06,0,.05.05.06,0,0,.06.05,0,0,.07,0,.05,0,.09,0,0,0,.15,0h0a1.71,1.71,0,0,0-.15.66,1,1,0,0,0,.09.39.83.83,0,0,0,.15.23.61.61,0,0,0,.16.12.77.77,0,0,0,.25.1h.13l.13,0,.06,0-.08.1a.56.56,0,0,0-.09.31v.06a.19.19,0,0,0,0,.07.42.42,0,0,0,.25.27l.06,0h.14a.93.93,0,0,0,.37-.19,1.7,1.7,0,0,0-.07.46,1.55,1.55,0,0,0,0,.31.91.91,0,0,0,.24.4l.07,0a.38.38,0,0,0,.15.09.76.76,0,0,0,.16.06.93.93,0,0,0,.87-.24,1.4,1.4,0,0,0,.19.53.68.68,0,0,0,.12.12.3.3,0,0,0,.2.08h.08a.58.58,0,0,0,.21-.07l.06,0,.12-.09.06,0a.45.45,0,0,0,0,.11.63.63,0,0,0,.24.36l.1.06a.54.54,0,0,0,.22.05.59.59,0,0,0,.4-.16l.08-.09a.61.61,0,0,0,.09-.2.36.36,0,0,0,0-.11,1.69,1.69,0,0,0,.44.52.74.74,0,0,0,.55.13l.08,0a.34.34,0,0,0,.14-.09l.06-.07a.51.51,0,0,0,.07-.24.25.25,0,0,0,0-.08l0-.07a.68.68,0,0,0,.26.24,1.26,1.26,0,0,0,.38.15,1.62,1.62,0,0,0,.31,0,.58.58,0,0,0,.26-.09.38.38,0,0,0,.14-.11.56.56,0,0,0,0-.08.92.92,0,0,0,.09-.25l.19-.66h.17a1,1,0,0,0,.49-.09.5.5,0,0,0,.23-.35.34.34,0,0,0-.07-.22.51.51,0,0,0,.33-.11l.1-.1a.75.75,0,0,0,.07-.12.67.67,0,0,0,.06-.28.31.31,0,0,0,0-.13.09.09,0,0,0,0-.07l.57-.19a.5.5,0,0,0,0-.12s0-.06,0-.09,0-.18-.06-.26,0,0,0,0a.27.27,0,0,1,0-.12l0,0a.08.08,0,0,1,0,0l.09-.05,0,0a1.46,1.46,0,0,0,.83-.62.56.56,0,0,0,0-.12.62.62,0,0,0,0-.33A.48.48,0,0,0,426.7,367.32ZM422.58,369l-.14,0s0,0,0,0h.18Zm1-7.41,0-.08.16.08Zm-3.72-.65,0,0h0Zm-1.53,4.74.06-.18.07-.13h0l.15-.25.06-.11h0c.07-.11.15-.25.25-.39a2.12,2.12,0,0,1,.57-.55.81.81,0,0,1,.25-.08,2.13,2.13,0,0,1,.25,0l.12,0,.12,0,.05,0a.28.28,0,0,0,.1-.09.29.29,0,0,0,.07-.22.13.13,0,0,0,0-.06l.06,0a.41.41,0,0,1,.11.07c.08,0,.15.1.23.13l.06,0h.05a.21.21,0,0,0,.19.11h.05a.2.2,0,0,0,.06-.07l.06-.15a.59.59,0,0,0,.1.17l0,0a.2.2,0,0,0,.06.09.23.23,0,0,0,.12,0,.38.38,0,0,0,.06.13.68.68,0,0,0,.49.31.65.65,0,0,0,.24,0l.11,0a.91.91,0,0,0,.44-.4.32.32,0,0,0,0,.09v0a.24.24,0,0,0,.07.13l0,0a1.13,1.13,0,0,0,.18.12l.09.05.1.08a.22.22,0,0,1,.08.17,3,3,0,0,0-.08.38.45.45,0,0,0,0,.23.36.36,0,0,0,.14.16.13.13,0,0,0,.08,0l.09,0h.19a.06.06,0,0,1,.06,0s0,.06,0,.09l0,0,0,0v.06a.13.13,0,0,0,0,.06.17.17,0,0,0,0,.05h0l.06,0h0l.06,0h.08a.23.23,0,0,0-.17.29c.07.2.29.21.29.43s-.34.21-.38.55a.78.78,0,0,0,.15.48h-.32a1,1,0,0,0,0,.45.77.77,0,0,0-.38-.14.49.49,0,0,0-.33.19v0a.53.53,0,0,0,0-.22.19.19,0,0,0-.15-.14.2.2,0,0,0-.2.12.59.59,0,0,0,0,.23,1.27,1.27,0,0,0,.08.48s.09.17.08.19-.08,0-.1,0-.2-.21-.31-.31l-.06,0a.1.1,0,0,0-.1.06.19.19,0,0,0,0,.13.81.81,0,0,0,.32.34l.1.07h0a.83.83,0,0,1-.22-.08.91.91,0,0,0-.43-.1.2.2,0,0,0-.11,0,.1.1,0,0,0-.06.09c0,.06.09.09.15.11l.19,0a.09.09,0,0,0,0,.07.29.29,0,0,0-.1,0,.23.23,0,0,0-.11.28l0,.05a1.07,1.07,0,0,1-.74.18l-.05,0c-.23-.08-.29-.3-.59-.27a.61.61,0,0,0-.5.41c.06-.12-.11-.28-.22-.21l0-.16h-.1v-.07a.26.26,0,0,0-.19-.16l-.06,0h-.08a1,1,0,0,0-.17,0v0a.48.48,0,0,0,.3-.24.38.38,0,0,0,0-.21.24.24,0,0,0-.12-.18.3.3,0,0,0-.26,0l0,0a.4.4,0,0,0-.46-.15.31.31,0,0,1-.09-.27.11.11,0,0,0,.07,0,.17.17,0,0,0,0-.14.38.38,0,0,0-.09-.13.24.24,0,0,0,0-.08l.13.06a.23.23,0,0,0,.23,0,.14.14,0,0,0,0-.2.3.3,0,0,0-.18-.08l-.41-.08.23,0a.64.64,0,0,0,.2,0,.36.36,0,0,0,.16-.11.25.25,0,0,0,0-.17.14.14,0,0,0-.08-.13.18.18,0,0,0-.13.05l-.46.34h0a.61.61,0,0,0,.13-.22l.14-.3a.49.49,0,0,0,.05-.16.14.14,0,0,0-.06-.15.17.17,0,0,0-.18,0h0a.55.55,0,0,0-.17-.17C418.42,366.08,418.26,365.83,418.29,365.64Z"/><path class="cls-63" d="M420.84,359.73a5,5,0,0,0-1.08.26.93.93,0,0,1-.33.12.89.89,0,0,1-.28,0,3.82,3.82,0,0,0-.82-.15,1,1,0,0,0-.76.26.61.61,0,0,0-.08.76,5.57,5.57,0,0,0-1.08-.1.42.42,0,0,0-.27.07.39.39,0,0,0-.14.29,2.44,2.44,0,0,0,.08,1.17c-.22.38-.74.37-.87.79a.62.62,0,0,0,.21.65.8.8,0,0,0-.43.58.54.54,0,0,0,.33.6.41.41,0,0,1-.16.23c.12,0,0,.22-.06.31a1.11,1.11,0,0,0,.48,1.86,1.37,1.37,0,0,0-.06,1.05.72.72,0,0,0,.89.41.57.57,0,0,0-.17.47.41.41,0,0,0,.33.36.73.73,0,0,0,.51-.2,1.13,1.13,0,0,0,.21,1.17.92.92,0,0,0,1.25,0c.06.32.19.71.51.73a.76.76,0,0,0,.53-.25.59.59,0,0,0,.56.58.61.61,0,0,0,.6-.55,1.77,1.77,0,0,0,.43.51.67.67,0,0,0,.64.1.41.41,0,0,0,.22-.55c.22.38,1.05.59,1.35.21a.91.91,0,0,0,.15-.33l.19-.66a1.24,1.24,0,0,0,.66-.08.4.4,0,0,0,.15-.57A.58.58,0,0,0,425,369l.56-.19c.09-.21-.15-.48,0-.66a.37.37,0,0,1,.17-.1,1.45,1.45,0,0,0,.82-.63.61.61,0,0,0-.3-.86l.16-.3a.15.15,0,0,1-.09-.21.81.81,0,0,1,.18-.19.8.8,0,0,0-.22-1.26.5.5,0,0,0-.17-.72.5.5,0,0,0-.22-.69.55.55,0,0,0,0-.81c-.24-.24-.71-.1-.88-.31s-.05-.38-.08-.52a1.72,1.72,0,0,0-.27-.52.61.61,0,0,0-.28-.2.69.69,0,0,0-.25,0h-1.07A1,1,0,0,0,423,360a1,1,0,0,1-.48.09.69.69,0,0,0-.71-.59A4.39,4.39,0,0,0,420.84,359.73Zm0,9-.05,0c-.22-.08-.28-.3-.58-.27a.61.61,0,0,0-.5.41c.06-.12-.11-.27-.23-.2l0-.17-.16,0a.27.27,0,0,0-.18-.27.28.28,0,0,0-.3.12.94.94,0,0,0,0-.64.42.42,0,0,0-.52-.28c-.19-.14,0-.45-.12-.66a.57.57,0,0,0-.43-.26.63.63,0,0,0,.35-.52.62.62,0,0,0-.27-.56c.17-.15,0-.4,0-.58a2.83,2.83,0,0,1,.34-.7c.22-.37.63-1,1.08-1a2,2,0,0,0,.48-.1.36.36,0,0,0,.22-.4c.16.06.29.19.45.25s.41-.07.36-.24a.85.85,0,0,0,.15.3l.2-.14a.63.63,0,0,0,.58.65.86.86,0,0,0,.79-.45c-.14.25.21.37.34.46.31.23.11.32.09.63a.4.4,0,0,0,.19.39.64.64,0,0,0,.34,0,.11.11,0,0,1,.08,0s0,.08-.05.12a.2.2,0,0,0,0,.22.19.19,0,0,0,.2.07.22.22,0,0,0-.16.29c.06.2.28.21.28.43s-.33.21-.37.55a.84.84,0,0,0,.14.48h-.32a1.17,1.17,0,0,0,.06.45A.64.64,0,0,0,423,367a.5.5,0,0,0-.42.36,1.41,1.41,0,0,0,0,.58.22.22,0,0,0-.28,0,.46.46,0,0,0-.11.28.69.69,0,0,1-.16-.18c-.06-.06-.16-.1-.21,0s.05.23,0,.34A1.39,1.39,0,0,1,420.83,368.72Z"/><path class="cls-64" d="M425.6,368.1a.37.37,0,0,1,.17-.1,1.45,1.45,0,0,0,.82-.63.61.61,0,0,0-.3-.86l.16-.3a.15.15,0,0,1-.09-.21.81.81,0,0,1,.18-.19.63.63,0,0,0,.16-.24.93.93,0,0,1-.69.38l.05.41c0,.12,0,.3-.15.27a.53.53,0,0,1,0,.79,1.47,1.47,0,0,1-.84.32.49.49,0,0,1-.07.67.66.66,0,0,1-.7.06.5.5,0,0,1-.52.77.69.69,0,0,1,.11.52.34.34,0,0,1-.4.26.27.27,0,0,1-.45.2.58.58,0,0,1-.45.44.6.6,0,0,1-.59-.2c.1.28-.23.55-.52.53a1.38,1.38,0,0,1-.75-.44,1,1,0,0,1-.47.31.35.35,0,0,1-.44-.25c-.07.07-.21,0-.16-.13a.55.55,0,0,1-.67.23.58.58,0,0,1-.33-.64,1.06,1.06,0,0,1-.84.39.68.68,0,0,1-.47-.46,1.42,1.42,0,0,1,0-.68.17.17,0,0,1-.17-.2.38.38,0,0,1-.39-.17.36.36,0,0,1,0-.42.6.6,0,0,1-.71-.36.74.74,0,0,1,.21-.8.37.37,0,0,1-.37-.45,1,1,0,0,1-.95-.51,1,1,0,0,1,0-.73,1.1,1.1,0,0,0,.59,1.72,1.37,1.37,0,0,0-.06,1.05.72.72,0,0,0,.89.41.57.57,0,0,0-.17.47.41.41,0,0,0,.33.36.73.73,0,0,0,.51-.2,1.13,1.13,0,0,0,.21,1.17.92.92,0,0,0,1.25,0c.06.32.19.71.51.73a.76.76,0,0,0,.53-.25.59.59,0,0,0,.56.58.61.61,0,0,0,.6-.55,1.77,1.77,0,0,0,.43.51.67.67,0,0,0,.64.1.41.41,0,0,0,.22-.55c.22.38,1.05.59,1.35.21a.91.91,0,0,0,.15-.33l.19-.66a1.24,1.24,0,0,0,.66-.08.4.4,0,0,0,.15-.57A.58.58,0,0,0,425,369l.56-.19C425.69,368.55,425.45,368.28,425.6,368.1Z"/><path class="cls-65" d="M423.4,363.85a1.06,1.06,0,0,1,.16-.64.36.36,0,0,1-.39-.52.62.62,0,0,1-.75-.5.82.82,0,0,1-.54.5c-.25,0-.54-.17-.5-.42,0,.07-.11.08-.18.07a.85.85,0,0,1-.26-.11c-.05,0-.11-.1-.09-.17a.4.4,0,0,1-.44.09.42.42,0,0,1-.24-.38,3.88,3.88,0,0,0-.15.36.59.59,0,0,1-.26.28.26.26,0,0,1-.33-.11.41.41,0,0,1-.36.24,1.21,1.21,0,0,1-.46-.08c0,.21.08.41.06.61s-.21.42-.4.34c0,.13-.22.16-.36.18.28,0,0,.84,0,.91a.33.33,0,0,0,0,.15c.08-.17.2-.36.28-.51.22-.37.63-1,1.08-1a2,2,0,0,0,.48-.1.36.36,0,0,0,.22-.4c.16.06.29.19.45.25s.41-.07.36-.24a.85.85,0,0,0,.15.3l.2-.14a.63.63,0,0,0,.58.65.86.86,0,0,0,.79-.45c-.14.25.21.37.34.46.31.23.11.32.09.63a.4.4,0,0,0,.19.39.64.64,0,0,0,.34,0,.11.11,0,0,1,.08,0s0,.08-.05.12a.2.2,0,0,0,0,.22.17.17,0,0,0,.13.07l.07,0a.26.26,0,0,1,.1-.39l-.09,0a.32.32,0,0,1,.12-.3A.39.39,0,0,1,423.4,363.85Z"/><path class="cls-66" d="M422,362.12c0-.08-.14-.09-.23-.1h-.14l.18-.08c.08,0,.16-.07.17-.16a.18.18,0,0,0-.13-.21.49.49,0,0,0-.16.05c-.15.08-.29.2-.44.29.09-.13.23-.23.32-.35a.47.47,0,0,0,.1-.45.19.19,0,0,0-.11-.09.17.17,0,0,0-.16,0,.71.71,0,0,0-.1.14,2.19,2.19,0,0,0-.2.66,5.14,5.14,0,0,0,.06-.55.65.65,0,0,0,0-.28.17.17,0,0,0-.16-.12.14.14,0,0,0-.09,0,.48.48,0,0,0-.09.26,1.41,1.41,0,0,0,.07.47l-.08-.18-.06-.09a.43.43,0,0,0-.26-.2.29.29,0,0,0-.13,0,.14.14,0,0,0-.1.07.14.14,0,0,0,0,.11.47.47,0,0,0,.05.1,2.78,2.78,0,0,0,.48.42,2.24,2.24,0,0,0-.4-.22.39.39,0,0,0-.21,0,.17.17,0,0,0-.15.12.15.15,0,0,0,.09.16.47.47,0,0,0,.19.06l.56.08a1.46,1.46,0,0,0-.69.08.3.3,0,0,0-.16.13.16.16,0,0,0,0,.2.25.25,0,0,0,.24,0,1,1,0,0,0,.54-.34l-.23.31a.62.62,0,0,0-.11.25.26.26,0,0,0,.23.26h.05a.11.11,0,0,0,.06-.07,2.69,2.69,0,0,0,.16-.68,3,3,0,0,0,0,.6.25.25,0,0,0,.08.15.25.25,0,0,0,.13,0,.13.13,0,0,0,.1,0s0,0,0-.05c0-.23-.18-.42-.19-.64a2.08,2.08,0,0,0,.15.39.46.46,0,0,0,.16.18.19.19,0,0,0,.23,0,.21.21,0,0,0,0-.25.58.58,0,0,0-.19-.19l-.29-.23a1.06,1.06,0,0,0,.48.19.39.39,0,0,0,.24,0A.17.17,0,0,0,422,362.12Z"/><circle class="cls-67" cx="421.02" cy="362" r="0.22"/><path class="cls-68" d="M421.11,361.8l0,0a.08.08,0,0,1,0,.05.28.28,0,0,1,0,.13.13.13,0,0,1-.07.09.21.21,0,0,1-.19,0,.15.15,0,0,1-.07-.05s0-.05,0-.08h0a.22.22,0,0,0,.44,0A.21.21,0,0,0,421.11,361.8Z"/><path class="cls-69" d="M423.51,367.84a.39.39,0,0,0-.26,0l-.52.13.27-.15a1,1,0,0,0,.21-.14.4.4,0,0,0,.12-.22.3.3,0,0,0-.05-.21.17.17,0,0,0-.16-.11c-.06,0-.1.07-.14.13l-.37.68a.87.87,0,0,0,.05-.36v-.43a.53.53,0,0,0,0-.22.19.19,0,0,0-.15-.14.22.22,0,0,0-.2.12.46.46,0,0,0,0,.23,1.51,1.51,0,0,0,.08.48s.09.17.08.19-.08,0-.1,0l-.31-.31a.09.09,0,0,0-.16,0,.29.29,0,0,0,0,.13.75.75,0,0,0,.32.34l.12.08A.73.73,0,0,1,422,368a.91.91,0,0,0-.43-.1.35.35,0,0,0-.11,0,.08.08,0,0,0-.06.09c0,.07.08.1.15.11a4.4,4.4,0,0,0,.73.05,2,2,0,0,1-.42,0,.46.46,0,0,0-.23,0,.22.22,0,0,0-.1.28s0,.05.05.06l0,0a.7.7,0,0,0,.4-.1,2,2,0,0,0,.32-.26l-.19.34a.57.57,0,0,0-.08.25c0,.09.08.18.17.17l.06,0a.39.39,0,0,0,.15-.34v0a.85.85,0,0,0,.11.26.32.32,0,0,0,.13.15.19.19,0,0,0,.19,0c.1-.05.1-.19.06-.3a.42.42,0,0,0-.07-.13c-.08-.11-.22-.19-.25-.33a1.08,1.08,0,0,0,.32.32.72.72,0,0,0,.19.11.28.28,0,0,0,.2,0,.18.18,0,0,0,.07-.08.2.2,0,0,0-.05-.18.66.66,0,0,0-.26-.14l-.37-.14a1.15,1.15,0,0,0,.58.09.34.34,0,0,0,.27-.13A.19.19,0,0,0,423.51,367.84Z"/><path class="cls-67" d="M422.71,368.07a.2.2,0,0,1-.2.2.19.19,0,0,1-.19-.2.18.18,0,0,1,.19-.19A.19.19,0,0,1,422.71,368.07Z"/><path class="cls-68" d="M422.59,367.89s0,0,0,0a.43.43,0,0,1,0,.05.17.17,0,0,1,0,.1.16.16,0,0,1-.07.09.22.22,0,0,1-.16,0l-.07-.05s0,0,0-.07h0a.19.19,0,0,0,.19.2.2.2,0,0,0,.2-.2A.21.21,0,0,0,422.59,367.89Z"/><path class="cls-70" d="M418.59,366.62a.27.27,0,0,0-.18-.08l-.4-.07.23,0,.2,0a.28.28,0,0,0,.15-.11.33.33,0,0,0,0-.17.17.17,0,0,0-.08-.13.19.19,0,0,0-.14.05l-.48.36a.65.65,0,0,0,.15-.24l.14-.3a1,1,0,0,0,0-.16.19.19,0,0,0-.06-.15.17.17,0,0,0-.18,0,.35.35,0,0,0-.11.15,1.14,1.14,0,0,0-.1.36.85.85,0,0,1,0,.16s-.05,0-.06-.06-.07-.22-.12-.32,0,0,0-.05-.06,0-.09,0a.17.17,0,0,0,0,.1.51.51,0,0,0,.11.33l.06.1a.29.29,0,0,1-.15-.14.76.76,0,0,0-.27-.2l-.09,0a.08.08,0,0,0-.07,0s0,.1.07.13a4.82,4.82,0,0,0,.5.27,1.6,1.6,0,0,1-.31-.1.35.35,0,0,0-.17-.06.17.17,0,0,0-.16.17.07.07,0,0,0,0,.06l0,0a.47.47,0,0,0,.31.06,1.57,1.57,0,0,0,.31-.08l-.24.18a.33.33,0,0,0-.14.15.13.13,0,0,0,.06.17h0a.3.3,0,0,0,.22-.19v0a.6.6,0,0,0,0,.23.28.28,0,0,0,0,.15.17.17,0,0,0,.13.07.18.18,0,0,0,.14-.19.37.37,0,0,0,0-.11c0-.11-.09-.21-.07-.32a.77.77,0,0,0,.12.33.71.71,0,0,0,.1.14.2.2,0,0,0,.15,0,.09.09,0,0,0,.07,0,.12.12,0,0,0,0-.14.59.59,0,0,0-.13-.19l-.22-.21a.9.9,0,0,0,.38.25.24.24,0,0,0,.23,0A.14.14,0,0,0,418.59,366.62Z"/><path class="cls-67" d="M418,366.53a.16.16,0,0,1-.2.07.15.15,0,0,1-.08-.2.14.14,0,0,1,.2-.07A.15.15,0,0,1,418,366.53Z"/><path class="cls-68" d="M417.93,366.36v.08a.25.25,0,0,1,0,.07.1.1,0,0,1-.07,0s-.08,0-.12-.05l0-.05a.07.07,0,0,1,0-.06h0a.15.15,0,0,0,.08.2.16.16,0,0,0,.2-.07A.17.17,0,0,0,417.93,366.36Z"/><path class="cls-71" d="M420.34,360.2a.27.27,0,0,0-.18-.08l-.41-.07.24,0,.2,0a.3.3,0,0,0,.15-.12.33.33,0,0,0,0-.17s0-.11-.08-.12a.15.15,0,0,0-.14,0l-.48.36a.7.7,0,0,0,.15-.23l.14-.31a.75.75,0,0,0,0-.16.17.17,0,0,0-.07-.15.15.15,0,0,0-.17,0,.42.42,0,0,0-.11.15,1.21,1.21,0,0,0-.1.36.85.85,0,0,1,0,.16s-.05,0-.06-.06-.07-.21-.12-.32a.05.05,0,0,0,0,0,.06.06,0,0,0-.09,0,.12.12,0,0,0,0,.09.55.55,0,0,0,.11.34l.06.1a.41.41,0,0,1-.15-.14.79.79,0,0,0-.27-.21l-.09,0a.08.08,0,0,0-.07.05c0,.05,0,.09.07.12a2.7,2.7,0,0,0,.5.27,1.6,1.6,0,0,1-.31-.1.35.35,0,0,0-.17-.06.19.19,0,0,0-.17.17.14.14,0,0,0,0,.06l0,0a.47.47,0,0,0,.31.06,1.09,1.09,0,0,0,.31-.08l-.25.18c-.05.05-.11.09-.13.15a.13.13,0,0,0,.06.17,0,0,0,0,0,0,0,.3.3,0,0,0,.22-.19h0a.55.55,0,0,0,0,.22.28.28,0,0,0,0,.15.17.17,0,0,0,.13.07c.09,0,.13-.1.14-.19a.41.41,0,0,0,0-.11c0-.11-.09-.21-.07-.32a.77.77,0,0,0,.12.33.71.71,0,0,0,.1.14.2.2,0,0,0,.15.06l.07,0a.12.12,0,0,0,0-.14.46.46,0,0,0-.13-.18l-.22-.22a.9.9,0,0,0,.38.25.27.27,0,0,0,.23,0A.16.16,0,0,0,420.34,360.2Z"/><path class="cls-67" d="M419.71,360.11a.15.15,0,0,1-.2.07.15.15,0,0,1-.08-.2.15.15,0,0,1,.2-.07A.15.15,0,0,1,419.71,360.11Z"/><path class="cls-68" d="M419.68,359.94s0,0,0,0v0a.16.16,0,0,1,0,.07.12.12,0,0,1-.07.05.18.18,0,0,1-.12-.05l0,0s0,0,0-.07h0a.15.15,0,0,0,.08.2.15.15,0,0,0,.2-.07A.18.18,0,0,0,419.68,359.94Z"/><path class="cls-72" d="M416.6,361.84a.28.28,0,0,0-.16.12l-.26.33.1-.22a1.06,1.06,0,0,0,.06-.19.3.3,0,0,0,0-.19.28.28,0,0,0-.13-.11.14.14,0,0,0-.15,0s0,.09,0,.14l.09.6a.58.58,0,0,0-.14-.24l-.21-.27a.63.63,0,0,0-.11-.12.15.15,0,0,0-.16,0,.15.15,0,0,0-.07.16.53.53,0,0,0,.08.17,1,1,0,0,0,.28.25s.13.06.13.08-.06,0-.07,0l-.34,0h-.05a.07.07,0,0,0,0,.09s0,.05.06.07a.57.57,0,0,0,.36.06h.11a.39.39,0,0,1-.19.06.75.75,0,0,0-.31.15l-.06.06a.09.09,0,0,0,0,.09s.1,0,.14,0a3,3,0,0,0,.48-.31,1.26,1.26,0,0,1-.24.22.4.4,0,0,0-.13.13.19.19,0,0,0,.07.22l.06,0,0,0a.5.5,0,0,0,.19-.24,1.67,1.67,0,0,0,.08-.32l0,.3a.54.54,0,0,0,.07.19.13.13,0,0,0,.18,0l0-.05a.33.33,0,0,0-.07-.28h0a.72.72,0,0,0,.19.11.27.27,0,0,0,.15,0,.14.14,0,0,0,.13-.08.18.18,0,0,0-.11-.21.31.31,0,0,0-.1-.05c-.11,0-.23,0-.31-.08a.83.83,0,0,0,.35.05.9.9,0,0,0,.16,0,.17.17,0,0,0,.12-.1.11.11,0,0,0,0-.08.16.16,0,0,0-.12-.09.57.57,0,0,0-.22,0l-.3.09a.88.88,0,0,0,.4-.22.23.23,0,0,0,.1-.21A.14.14,0,0,0,416.6,361.84Z"/><path class="cls-67" d="M416.22,362.36a.16.16,0,0,1,0,.21.15.15,0,0,1-.19-.24A.16.16,0,0,1,416.22,362.36Z"/><path class="cls-68" d="M416.06,362.3h0l0,0a.18.18,0,0,1,.05.07.11.11,0,0,1,0,.08.16.16,0,0,1-.1.08H416l0,0h0a.15.15,0,0,0,.21,0,.16.16,0,0,0,0-.21A.15.15,0,0,0,416.06,362.3Z"/><path class="cls-61" d="M423.16,359.36a.36.36,0,0,1,.32,0,.29.29,0,0,1,.15.22.52.52,0,0,1-.05.27.62.62,0,0,1-.49.32,3.29,3.29,0,0,1,.43.09c.13,0,.27.1.31.23a.26.26,0,0,1-.16.29.44.44,0,0,1-.34,0,.61.61,0,0,1-.39-.39.87.87,0,0,1,.16.62.37.37,0,0,1-.2.31.27.27,0,0,1-.31-.17.55.55,0,0,1,0-.38,2.29,2.29,0,0,0,.12-.37,1,1,0,0,1-.46.46.23.23,0,0,1-.2,0,.26.26,0,0,1-.1-.13.46.46,0,0,1,0-.44.42.42,0,0,1,.32-.16,1,1,0,0,1,.35.07,1.23,1.23,0,0,1-.31-.19.36.36,0,0,1-.1-.34.24.24,0,0,1,.15-.16.31.31,0,0,1,.35.1c.07.08.08.27.15.31A.66.66,0,0,1,423.16,359.36Z"/><path class="cls-62" d="M423.07,360.27a.21.21,0,0,1-.27.11.21.21,0,0,1-.11-.28A.21.21,0,0,1,423,360,.21.21,0,0,1,423.07,360.27Z"/><path class="cls-61" d="M425.5,365.63a.34.34,0,0,1,.32,0,.27.27,0,0,1,.15.22.42.42,0,0,1-.05.27.62.62,0,0,1-.49.33,3,3,0,0,1,.43.08c.13,0,.28.1.31.24a.25.25,0,0,1-.15.28.47.47,0,0,1-.35,0,.57.57,0,0,1-.38-.39.88.88,0,0,1,.15.63.32.32,0,0,1-.2.3.27.27,0,0,1-.31-.17.55.55,0,0,1,0-.38c0-.12.09-.24.12-.36a1.11,1.11,0,0,1-.46.45.21.21,0,0,1-.3-.14.49.49,0,0,1,0-.44.39.39,0,0,1,.32-.15,1.13,1.13,0,0,1,.36.06.89.89,0,0,1-.31-.19.35.35,0,0,1-.11-.33.26.26,0,0,1,.15-.17.34.34,0,0,1,.36.11c.07.08.08.26.15.31A.64.64,0,0,1,425.5,365.63Z"/><path class="cls-62" d="M425.42,366.53a.21.21,0,0,1-.28.11.21.21,0,0,1-.11-.27.21.21,0,0,1,.28-.11A.21.21,0,0,1,425.42,366.53Z"/><path class="cls-61" d="M421.49,369.4a.37.37,0,0,1,.35,0,.3.3,0,0,1,.16.23.52.52,0,0,1-.05.3.7.7,0,0,1-.53.35,3.4,3.4,0,0,1,.46.09.44.44,0,0,1,.34.26.28.28,0,0,1-.17.31.52.52,0,0,1-.37,0,.63.63,0,0,1-.42-.42.94.94,0,0,1,.17.67.38.38,0,0,1-.22.33.3.3,0,0,1-.34-.18.64.64,0,0,1,0-.41c0-.14.1-.26.13-.4a1.13,1.13,0,0,1-.5.49.24.24,0,0,1-.22,0,.35.35,0,0,1-.11-.15.52.52,0,0,1,0-.47.41.41,0,0,1,.34-.17,1,1,0,0,1,.39.07,1.48,1.48,0,0,1-.34-.21.37.37,0,0,1-.11-.36.26.26,0,0,1,.16-.18.38.38,0,0,1,.39.11c.07.09.09.29.16.34A.73.73,0,0,1,421.49,369.4Z"/><path class="cls-62" d="M421.4,370.38a.23.23,0,1,1-.42-.17.23.23,0,0,1,.42.17Z"/><path class="cls-61" d="M419,361.34a.28.28,0,0,1,.25,0,.21.21,0,0,1,.12.17.43.43,0,0,1,0,.22.52.52,0,0,1-.39.26,1.86,1.86,0,0,1,.34.06.31.31,0,0,1,.25.19.22.22,0,0,1-.12.23.39.39,0,0,1-.28,0,.46.46,0,0,1-.3-.31.71.71,0,0,1,.12.49.28.28,0,0,1-.16.25.24.24,0,0,1-.25-.14.44.44,0,0,1,0-.3c0-.1.07-.19.1-.29a.91.91,0,0,1-.37.36.18.18,0,0,1-.16,0,.2.2,0,0,1-.08-.1.36.36,0,0,1,0-.35.29.29,0,0,1,.25-.12.66.66,0,0,1,.28.05.82.82,0,0,1-.24-.15.29.29,0,0,1-.09-.27.2.2,0,0,1,.12-.13.25.25,0,0,1,.28.08c.06.06.07.21.12.25A.51.51,0,0,1,419,361.34Z"/><path class="cls-62" d="M419,362.06a.16.16,0,0,1-.22.09.17.17,0,0,1-.09-.22.17.17,0,0,1,.31.13Z"/><path class="cls-61" d="M425.44,361.55a.34.34,0,0,1,.26,0,.28.28,0,0,1,.12.18.38.38,0,0,1,0,.21.49.49,0,0,1-.39.26l.34.07c.1,0,.22.08.25.19a.2.2,0,0,1-.13.22.36.36,0,0,1-.27,0,.48.48,0,0,1-.31-.31.74.74,0,0,1,.13.5.29.29,0,0,1-.17.24A.22.22,0,0,1,425,363a.47.47,0,0,1,0-.31,2.47,2.47,0,0,0,.1-.29.8.8,0,0,1-.37.36.18.18,0,0,1-.16,0,.2.2,0,0,1-.08-.1.41.41,0,0,1,0-.36.35.35,0,0,1,.25-.12,1.35,1.35,0,0,1,.29.05.79.79,0,0,1-.25-.15.26.26,0,0,1-.08-.26.18.18,0,0,1,.12-.13.26.26,0,0,1,.28.08c.05.06.06.21.12.25A.53.53,0,0,1,425.44,361.55Z"/><path class="cls-62" d="M425.37,362.27a.17.17,0,0,1-.21.09.16.16,0,0,1-.09-.22.17.17,0,0,1,.22-.09A.16.16,0,0,1,425.37,362.27Z"/><path class="cls-61" d="M418.82,367.54a.32.32,0,0,1,.25,0,.25.25,0,0,1,.12.18.31.31,0,0,1,0,.21.46.46,0,0,1-.39.26l.35.07c.1,0,.22.08.24.19a.2.2,0,0,1-.12.22.36.36,0,0,1-.27,0,.46.46,0,0,1-.31-.31.69.69,0,0,1,.12.5.27.27,0,0,1-.16.24.21.21,0,0,1-.24-.13.47.47,0,0,1,0-.31c0-.09.07-.19.1-.29a.85.85,0,0,1-.37.36.18.18,0,0,1-.16,0,.2.2,0,0,1-.08-.1.38.38,0,0,1,0-.36.32.32,0,0,1,.25-.12,1.47,1.47,0,0,1,.29.05.79.79,0,0,1-.25-.15.29.29,0,0,1-.09-.26.22.22,0,0,1,.12-.13.27.27,0,0,1,.29.08c0,.06.06.21.11.25A.54.54,0,0,1,418.82,367.54Z"/><path class="cls-62" d="M418.75,368.26a.17.17,0,0,1-.22.09.17.17,0,0,1,.13-.31A.16.16,0,0,1,418.75,368.26Z"/><path class="cls-61" d="M415.54,364.32a.34.34,0,0,1,.31,0,.26.26,0,0,1,.14.21.4.4,0,0,1-.05.26.6.6,0,0,1-.46.31,3.28,3.28,0,0,1,.41.08c.12,0,.26.1.29.23a.24.24,0,0,1-.14.27.42.42,0,0,1-.33,0,.58.58,0,0,1-.38-.37.84.84,0,0,1,.16.59.35.35,0,0,1-.2.3.27.27,0,0,1-.3-.17.56.56,0,0,1,0-.36c0-.12.09-.23.12-.35a1,1,0,0,1-.45.43.21.21,0,0,1-.19,0,.24.24,0,0,1-.09-.13.45.45,0,0,1,0-.42.4.4,0,0,1,.31-.15,1.35,1.35,0,0,1,.34.06.83.83,0,0,1-.3-.18.35.35,0,0,1-.1-.32.28.28,0,0,1,.14-.16.36.36,0,0,1,.35.1c.06.08.07.25.14.3A.63.63,0,0,1,415.54,364.32Z"/><path class="cls-62" d="M415.46,365.19a.19.19,0,0,1-.26.1.2.2,0,0,1-.11-.26.19.19,0,0,1,.26-.1A.2.2,0,0,1,415.46,365.19Z"/><path class="cls-61" d="M424.94,364.14c.12.2.12.42,0,.48s-.3,0-.42-.23-.11-.42,0-.48S424.83,364,424.94,364.14Z"/><path class="cls-61" d="M419.46,369.55c0,.19-.15.33-.29.32s-.22-.19-.19-.38.15-.34.28-.32S419.48,369.35,419.46,369.55Z"/><path class="cls-61" d="M421.19,360.15a.3.3,0,0,1,.12.39.34.34,0,1,1-.12-.39Z"/><path class="cls-61" d="M417.38,361.92c-.16,0-.28-.15-.25-.25s.17-.15.34-.11.27.15.25.25S417.54,362,417.38,361.92Z"/><path class="cls-61" d="M423.77,361.88c-.13.11-.29.13-.35.05s0-.23.13-.34.29-.12.35,0S423.91,361.78,423.77,361.88Z"/><path class="cls-61" d="M417.28,367.77c-.14,0-.24-.13-.22-.22s.16-.14.3-.1.24.13.22.22S417.42,367.8,417.28,367.77Z"/><path class="cls-61" d="M416.88,364.86c-.2.06-.4,0-.44-.11s.09-.29.29-.36.41,0,.45.12S417.09,364.79,416.88,364.86Z"/><path class="cls-61" d="M424.36,367.9c-.11.1-.24.13-.31.07s0-.21.07-.31.24-.14.31-.07S424.46,367.79,424.36,367.9Z"/><path class="cls-73" d="M426.61,363.54c0-.06-.11-.07-.18-.09l-.4-.08.23,0a.65.65,0,0,0,.2,0,.27.27,0,0,0,.16-.11.33.33,0,0,0,0-.17.14.14,0,0,0-.07-.13.15.15,0,0,0-.14,0l-.5.34a.5.5,0,0,0,.16-.22l.15-.31a.47.47,0,0,0,.06-.15.16.16,0,0,0-.06-.15.15.15,0,0,0-.18,0,.35.35,0,0,0-.11.15.89.89,0,0,0-.11.35.76.76,0,0,1,0,.16s-.05,0-.06-.06-.06-.22-.1-.32l0-.05a.08.08,0,0,0-.09,0,.1.1,0,0,0,0,.09.54.54,0,0,0,.1.34l.05.1a.47.47,0,0,1-.14-.14.78.78,0,0,0-.26-.22l-.09,0a.07.07,0,0,0-.07,0s0,.1.07.13a3.82,3.82,0,0,0,.48.29,1.88,1.88,0,0,1-.3-.12.35.35,0,0,0-.17-.06.18.18,0,0,0-.17.16s0,.05,0,.06l0,0a.55.55,0,0,0,.31.07,1.55,1.55,0,0,0,.31-.07l-.25.17a.47.47,0,0,0-.14.14.13.13,0,0,0,.06.18h.05a.31.31,0,0,0,.22-.18v0a.82.82,0,0,0,0,.22.33.33,0,0,0,0,.15.16.16,0,0,0,.13.08c.08,0,.14-.1.14-.18a.24.24,0,0,0,0-.12c0-.11-.09-.21-.06-.32a.85.85,0,0,0,.11.34.67.67,0,0,0,.09.14.2.2,0,0,0,.15.06.09.09,0,0,0,.07,0,.14.14,0,0,0,0-.14.5.5,0,0,0-.13-.19l-.21-.23a.89.89,0,0,0,.37.27.24.24,0,0,0,.23,0A.14.14,0,0,0,426.61,363.54Z"/><path class="cls-67" d="M426,363.42a.15.15,0,1,1-.07-.2A.14.14,0,0,1,426,363.42Z"/><path class="cls-68" d="M426,363.26v0s0,0,0,0a.19.19,0,0,1,0,.08l-.08,0a.17.17,0,0,1-.11-.06.05.05,0,0,1,0-.05s0,0,0-.06h0a.15.15,0,0,0,.27.13A.15.15,0,0,0,426,363.26Z"/><polygon class="cls-74" points="444.18 361.2 442.62 361.2 442.36 358.43 444.45 358.43 444.18 361.2"/><polygon class="cls-74" points="447.14 358.19 443.73 358.19 442.97 352.64 447.9 352.64 447.14 358.19"/><polygon class="cls-75" points="444.19 357.75 443.58 353.29 447.29 353.28 446.68 357.75 444.19 357.75"/><polygon class="cls-74" points="448.11 352.77 442.71 352.77 442.81 352.19 448 352.19 448.11 352.77"/><polygon class="cls-76" points="441.37 352.77 442.71 352.77 442.81 352.19 441.47 352.19 441.37 352.77"/><polygon class="cls-76" points="441.67 352.77 442.99 352.77 443.73 358.19 442.79 358.14 441.67 352.77"/><polygon class="cls-77" points="442.97 357.75 442.13 353.29 442.77 353.29 443.42 357.75 442.97 357.75"/><polygon class="cls-76" points="441.37 352.77 441.7 352.94 443.01 352.94 447.85 352.94 448.11 352.77 442.71 352.77 441.37 352.77"/><polygon class="cls-78" points="445.97 350.57 444.19 350.57 443.16 352.19 447.71 352.19 445.97 350.57"/><polygon class="cls-74" points="446.29 350.73 443.95 350.73 444.12 350.34 445.98 350.34 446.29 350.73"/><polygon class="cls-74" points="441.83 352.19 443.56 350.57 444.19 350.57 443.16 352.19 441.83 352.19"/><polygon class="cls-76" points="443.27 350.73 443.95 350.73 444.12 350.34 443.64 350.34 443.27 350.73"/><polygon class="cls-76" points="443.27 350.73 443.27 350.85 446.28 350.85 446.29 350.73 443.27 350.73"/><polygon class="cls-79" points="445.9 357.75 446.24 357.75 446.87 353.28 446.51 353.28 445.9 357.75"/><circle class="cls-80" cx="444.93" cy="354.53" r="1.04"/><path class="cls-81" d="M444.85,354.23a.28.28,0,1,1-.28-.27A.28.28,0,0,1,444.85,354.23Z"/><path class="cls-82" d="M445.06,353.5c.09.05,0,.11.11.16a.78.78,0,0,1,.37.63.89.89,0,0,1-.89.89.87.87,0,0,1-.72-.38,1,1,0,1,0,1.13-1.3Z"/><path class="cls-83" d="M444.55,353.29v.28c0,.15.75.14.75,0v-.28Z"/><path class="cls-84" d="M444.53,353.29v.06c0,.16.8.15.8,0v-.06Z"/><path class="cls-85" d="M445,353.29a.34.34,0,0,1,.13.16,1.1,1.1,0,0,1-.57-.05h0a.91.91,0,0,0,.58.08.8.8,0,0,1,0,.18h0c.07,0,.11,0,.11-.08v-.18s0,0,0,0v-.06Z"/><polygon class="cls-76" points="447.12 353.27 446.51 357.75 446.68 357.75 447.29 353.28 447.12 353.27"/><polygon class="cls-86" points="442.31 353.29 443.11 357.75 442.97 357.75 442.13 353.29 442.31 353.29"/><polygon class="cls-87" points="444.18 357.68 446.53 357.65 446.68 357.75 444.19 357.75 444.18 357.68"/><polygon class="cls-87" points="442.97 357.75 443.1 357.7 443.41 357.7 443.42 357.75 442.97 357.75"/><path class="cls-85" d="M444.23,357.68s-.41-4.28-.41-4.28l3.29,0,.18-.07h-3.71l.61,4.46Z"/><polygon class="cls-88" points="443.6 353.38 446.99 354.23 446.88 355.1 443.73 354.4 443.6 353.38"/><polygon class="cls-89" points="443.82 355.05 446.76 355.96 446.57 357.38 444.08 356.9 443.82 355.05"/><polygon class="cls-74" points="445.33 350.34 444.57 350.34 444.68 349.91 444.92 349.91 445.33 350.34"/><polygon class="cls-76" points="444.12 350.34 444.57 350.34 444.68 349.91 444.53 349.91 444.12 350.34"/><polygon class="cls-74" points="445.46 359.85 444.57 359.85 444.49 358.19 445.72 358.19 445.46 359.85"/><polygon class="cls-76" points="444.1 359.85 444.57 359.85 444.49 358.19 443.83 358.19 444.1 359.85"/><polygon class="cls-76" points="444.2 359.85 443.27 359.85 443.15 359.21 444.2 359.21 444.2 359.85"/><polygon class="cls-76" points="442.36 358.43 442.21 358.43 442.49 361.2 442.62 361.2 442.36 358.43"/><polygon class="cls-90" points="442.74 352.58 442.9 352.28 446.87 352.19 442.81 352.19 442.74 352.58"/><polygon class="cls-90" points="443.13 353.8 443.83 358.1 444.3 358.19 443.73 358.19 443.13 353.8"/><polygon class="cls-90" points="442.47 359.65 442.47 358.53 443.71 358.43 442.36 358.43 442.47 359.65"/><polygon class="cls-91" points="443.27 359.85 444.26 360.37 444.31 359.85 443.27 359.85"/><polygon class="cls-91" points="444.49 358.19 444.5 358.45 445.63 358.75 445.72 358.19 444.49 358.19"/><polygon class="cls-74" points="393.32 361.2 391.75 361.2 391.49 358.43 393.58 358.43 393.32 361.2"/><polygon class="cls-74" points="396.27 358.19 392.86 358.19 392.1 352.64 397.03 352.64 396.27 358.19"/><polygon class="cls-75" points="393.32 357.75 392.72 353.29 396.42 353.28 395.81 357.75 393.32 357.75"/><polygon class="cls-74" points="397.24 352.77 391.84 352.77 391.94 352.19 397.13 352.19 397.24 352.77"/><polygon class="cls-76" points="390.5 352.77 391.84 352.77 391.94 352.19 390.6 352.19 390.5 352.77"/><polygon class="cls-76" points="390.8 352.77 392.12 352.77 392.86 358.19 391.92 358.14 390.8 352.77"/><polygon class="cls-77" points="392.1 357.75 391.26 353.29 391.91 353.29 392.55 357.75 392.1 357.75"/><polygon class="cls-76" points="390.5 352.77 390.83 352.94 392.14 352.94 396.98 352.94 397.24 352.77 391.84 352.77 390.5 352.77"/><polygon class="cls-78" points="395.11 350.57 393.33 350.57 392.29 352.19 396.84 352.19 395.11 350.57"/><polygon class="cls-74" points="395.42 350.73 393.08 350.73 393.25 350.34 395.11 350.34 395.42 350.73"/><polygon class="cls-74" points="390.96 352.19 392.69 350.57 393.33 350.57 392.29 352.19 390.96 352.19"/><polygon class="cls-76" points="392.4 350.73 393.08 350.73 393.25 350.34 392.77 350.34 392.4 350.73"/><polygon class="cls-76" points="392.4 350.73 392.4 350.85 395.41 350.85 395.42 350.73 392.4 350.73"/><polygon class="cls-79" points="395.03 357.75 395.37 357.75 396 353.28 395.64 353.28 395.03 357.75"/><circle class="cls-92" cx="394.06" cy="354.53" r="1.04"/><path class="cls-81" d="M394,354.23a.27.27,0,1,1-.27-.27A.27.27,0,0,1,394,354.23Z"/><path class="cls-82" d="M394.2,353.5c.08.05,0,.11.1.16a.79.79,0,0,1,.38.63.89.89,0,0,1-1.62.51,1,1,0,1,0,1.14-1.3Z"/><path class="cls-93" d="M393.68,353.29v.28c0,.15.76.14.76,0v-.28Z"/><path class="cls-84" d="M393.66,353.29v.06c0,.16.8.15.8,0v-.06Z"/><path class="cls-85" d="M394.12,353.29a.36.36,0,0,1,.14.16,1.09,1.09,0,0,1-.57-.05h0a.93.93,0,0,0,.59.08.84.84,0,0,1,0,.18h0c.07,0,.12,0,.12-.08v-.18a.05.05,0,0,0,0,0v-.06Z"/><polygon class="cls-76" points="396.25 353.27 395.65 357.75 395.81 357.75 396.42 353.28 396.25 353.27"/><polygon class="cls-86" points="391.44 353.29 392.25 357.75 392.1 357.75 391.26 353.29 391.44 353.29"/><polygon class="cls-87" points="393.31 357.68 395.66 357.65 395.81 357.75 393.32 357.75 393.31 357.68"/><polygon class="cls-87" points="392.1 357.75 392.24 357.7 392.54 357.7 392.55 357.75 392.1 357.75"/><path class="cls-85" d="M393.36,357.68s-.41-4.28-.41-4.28l3.29,0,.18-.07h-3.7l.61,4.46Z"/><polygon class="cls-94" points="392.73 353.38 396.13 354.23 396.01 355.1 392.86 354.4 392.73 353.38"/><polygon class="cls-95" points="392.96 355.05 395.89 355.96 395.7 357.38 393.21 356.9 392.96 355.05"/><polygon class="cls-74" points="394.46 350.34 393.71 350.34 393.81 349.91 394.05 349.91 394.46 350.34"/><polygon class="cls-76" points="393.25 350.34 393.71 350.34 393.81 349.91 393.66 349.91 393.25 350.34"/><polygon class="cls-74" points="394.59 359.85 393.7 359.85 393.62 358.19 394.86 358.19 394.59 359.85"/><polygon class="cls-76" points="393.23 359.85 393.7 359.85 393.62 358.19 392.97 358.19 393.23 359.85"/><polygon class="cls-76" points="393.33 359.85 392.4 359.85 392.28 359.21 393.33 359.21 393.33 359.85"/><polygon class="cls-76" points="391.49 358.43 391.34 358.43 391.62 361.2 391.75 361.2 391.49 358.43"/><polygon class="cls-90" points="391.87 352.58 392.03 352.28 396 352.19 391.94 352.19 391.87 352.58"/><polygon class="cls-90" points="392.26 353.8 392.97 358.1 393.44 358.19 392.86 358.19 392.26 353.8"/><polygon class="cls-90" points="391.61 359.65 391.61 358.53 392.85 358.43 391.49 358.43 391.61 359.65"/><polygon class="cls-91" points="392.4 359.85 393.39 360.37 393.44 359.85 392.4 359.85"/><polygon class="cls-91" points="393.62 358.19 393.64 358.45 394.77 358.75 394.86 358.19 393.62 358.19"/><path id="_Path_" data-name="&lt;Path&gt;" class="cls-96" d="M449.17,253.44H391.28c.08,0-6.27,17.34-15,41.2H348v76.67l-22.26,60.35h32.31s61-153.48,61-153.24,62,153.24,62,153.24h35.17Z"/><polygon class="cls-97" points="180.5 389.4 180.5 431.66 147.98 431.66 147.98 334.48 180.5 300.68 180.5 355.6 213.01 342.35 245.53 355.6 245.53 300.68 278.04 334.48 278.04 431.66 245.53 431.66 245.53 389.4 213.01 376.69 180.5 389.4"/><polygon class="cls-98" points="213.01 251.19 148.12 319.28 144.79 319.28 107.94 319.28 213.01 206.08 318.08 319.28 281.24 319.28 277.91 319.28 213.01 251.19"/><path class="cls-98" d="M626.08,237.77A97.92,97.92,0,1,0,724,335.68,97.92,97.92,0,0,0,626.08,237.77Zm0,160.54a62.63,62.63,0,1,1,62.63-62.63A62.63,62.63,0,0,1,626.08,398.31Z"/><path class="cls-98" d="M626.08,307.29l-75.15,43.39-17.37,10a95.84,95.84,0,0,0,185,0l-17.37-10Zm61.32,75.23a76.45,76.45,0,0,1-128.62-9.39l67.3-38.86,67.3,38.86A76.94,76.94,0,0,1,687.4,382.52Z"/><rect class="cls-98" x="606.57" y="354.89" width="15.6" height="15.6"/><rect class="cls-98" x="629.99" y="354.89" width="15.6" height="15.6"/><rect class="cls-98" x="606.57" y="377.13" width="15.6" height="15.6"/><rect class="cls-98" x="629.99" y="377.13" width="15.6" height="15.6"/><path class="cls-98" d="M652.49,243.59C591.16,226,530.26,272.2,530.26,335.72q0,4.77.47,9.41a2.68,2.68,0,0,0,4,2l13.59-7.84a2.73,2.73,0,0,0,1.34-2.41c0-35.08,24.78-66.28,58.9-74.41a75.27,75.27,0,0,1,25-1.67c14.2,1.43,20.95,9.25,29.22,20.11,12.32,16.19,24.53,32.47,36.8,48.7,4.19,5.56,8.47,11.19,14,15.38,12.42,9.38,8-19,7-25.16a95.92,95.92,0,0,0-68.11-76.28Z"/></g></g></svg>